<svg width="426" height="401" viewBox="0 0 426 401" fill="none" xmlns="http://www.w3.org/2000/svg">
<g clip-path="url(#clip0_610_9669)">
<path d="M228.359 16.0895C207.239 15.8895 79.3093 13.9095 75.5493 49.5595C71.9393 83.6995 121.509 71.1995 121.999 86.3495C122.509 102.269 113.059 106.869 86.6693 105.859C75.2393 105.419 39.1493 109.469 38.5693 132.249C37.9993 154.909 78.2993 152.049 76.2993 170.839C75.1393 192.199 44.5393 196.849 32.4793 202.499C19.3793 209.349 -4.73074 220.649 0.809262 244.899C8.09926 273.019 54.3993 267.959 71.8393 271.429C83.4893 273.319 120.519 276.589 115.249 301.509C112.479 316.49 82.0793 317.359 87.8893 336.569C93.7693 354.529 146.779 358.079 157.519 358.669C202.099 361.079 299.979 365.019 343.579 346.629C359.609 339.939 373.759 331.879 372.119 307.839C371.319 286.369 359.739 283.229 379.249 266.639C391.579 255.96 415.179 256.819 413.779 225.659C413.029 208.849 370.019 201.869 370.979 184.269C372.479 156.619 425.269 180.099 425.459 131.199C425.579 100.679 329.539 117.749 330.519 87.5595C329.229 75.3095 350.359 70.1095 349.459 56.5395C349.949 34.8295 325.069 18.7595 228.359 16.0895Z" fill="#E0EEF3"/>
<path d="M144.559 237.496C144.459 237.556 144.329 237.596 144.179 237.596C119.669 237.596 95.1594 237.596 70.6494 237.596C70.3194 237.596 69.9994 237.366 69.9194 237.046C69.1194 233.546 73.1594 230.806 75.8894 232.146C76.2694 230.366 78.0394 229.146 79.8694 229.366C78.8594 226.176 80.2594 222.946 83.6094 221.386C86.6894 219.956 89.5694 221.136 91.3994 223.466C92.4494 218.056 97.1194 213.376 102.809 212.976C105.899 212.766 109.169 213.636 111.579 215.666C113.979 217.676 114.759 219.886 115.359 222.596C117.159 220.016 120.059 218.796 123.409 219.836C126.709 220.856 127.129 224.226 126.979 227.256C129.639 225.046 132.839 223.976 136.309 226.066C139.189 227.796 139.819 230.586 139.929 233.616C142.299 232.206 144.749 233.606 144.939 236.846C144.949 237.176 144.789 237.396 144.559 237.496Z" fill="#C7DAE1"/>
<path d="M349.668 85.1136C349.668 99.2036 387.908 101.804 389.888 85.1136C391.878 68.4136 349.668 63.9536 349.668 85.1136Z" fill="#E0EEF3"/>
<path d="M40.9375 301.908C40.9375 316.008 88.2575 318.728 89.9775 301.908C92.0875 281.168 40.9375 277.228 40.9375 301.908Z" fill="#E0EEF3"/>
<path d="M316.738 381.415C316.738 398.135 372.858 401.365 374.898 381.415C377.398 356.825 316.738 352.145 316.738 381.415Z" fill="#E0EEF3"/>
<path d="M36.9375 86.1083C36.9375 95.3083 63.0175 97.0883 63.9675 86.1083C65.1275 72.5683 36.9375 69.9983 36.9375 86.1083Z" fill="#E0EEF3"/>
<path d="M186.411 250.005C187.191 246.095 181.401 242.495 176.941 243.935C177.671 241.255 176.841 238.815 172.881 237.615C171.231 237.115 169.251 237.125 167.511 237.595C170.631 231.375 167.731 224.295 158.091 222.835C147.611 221.245 135.981 226.385 133.901 234.665C125.381 226.285 107.321 236.325 112.651 245.965C109.361 245.445 105.961 247.305 105.761 250.075C102.431 248.945 99.801 252.345 101.861 255.265C102.011 255.475 102.321 255.615 102.621 255.615C132.271 255.615 161.931 255.615 191.581 255.615C191.811 255.615 191.991 255.555 192.121 255.475C192.261 255.395 192.371 255.275 192.431 255.105C193.441 252.205 189.711 249.475 186.411 250.005Z" fill="white"/>
<path d="M187.329 316.358C187.679 314.628 185.109 313.038 183.139 313.678C183.459 312.488 183.099 311.418 181.349 310.888C180.619 310.668 179.749 310.668 178.979 310.878C180.359 308.128 179.069 304.998 174.809 304.348C170.179 303.638 165.029 305.918 164.109 309.578C160.339 305.868 152.359 310.308 154.709 314.578C153.249 314.348 151.749 315.168 151.659 316.398C150.189 315.898 149.019 317.398 149.939 318.698C150.009 318.788 150.139 318.848 150.279 318.848C163.389 318.848 176.499 318.848 189.619 318.848C189.719 318.848 189.799 318.828 189.859 318.788C189.919 318.748 189.969 318.698 189.999 318.618C190.439 317.338 188.789 316.128 187.329 316.358Z" fill="white"/>
<path d="M346.128 155.97C346.208 156.02 346.298 156.05 346.418 156.05C364.648 156.05 382.878 156.05 401.118 156.05C401.358 156.05 401.608 155.88 401.658 155.64C402.258 153.04 399.248 151 397.218 151.99C396.928 150.67 395.618 149.76 394.258 149.93C395.008 147.56 393.968 145.15 391.478 144C389.188 142.93 387.048 143.81 385.688 145.55C384.908 141.52 381.428 138.04 377.198 137.75C374.898 137.59 372.468 138.24 370.678 139.75C368.888 141.25 368.308 142.89 367.868 144.9C366.528 142.98 364.368 142.08 361.878 142.85C359.418 143.61 359.108 146.12 359.228 148.37C357.248 146.73 354.868 145.93 352.288 147.48C350.148 148.77 349.678 150.84 349.588 153.09C347.828 152.04 346.008 153.08 345.858 155.49C345.838 155.73 345.958 155.89 346.128 155.97Z" fill="white"/>
<path d="M203.558 57.7505C203.608 57.7805 203.678 57.8005 203.748 57.8005C216.068 57.8005 228.388 57.8005 240.708 57.8005C240.868 57.8005 241.038 57.6905 241.078 57.5205C241.488 55.7605 239.448 54.3805 238.078 55.0605C237.888 54.1705 236.998 53.5505 236.078 53.6605C236.588 52.0605 235.888 50.4305 234.198 49.6505C232.648 48.9305 231.208 49.5205 230.288 50.7005C229.758 47.9805 227.408 45.6305 224.548 45.4305C222.998 45.3205 221.348 45.7605 220.138 46.7805C218.928 47.7905 218.538 48.9005 218.238 50.2605C217.338 48.9605 215.878 48.3505 214.198 48.8705C212.538 49.3805 212.328 51.0805 212.408 52.6005C211.068 51.4905 209.468 50.9505 207.718 52.0005C206.268 52.8705 205.958 54.2705 205.898 55.7905C204.708 55.0805 203.478 55.7905 203.378 57.4105C203.358 57.5905 203.438 57.7005 203.558 57.7505Z" fill="white"/>
<path d="M291.118 378.46C291.118 378.32 291.068 378.2 291.008 378.11C290.908 377.9 290.708 377.74 290.398 377.75C281.088 377.9 271.788 378.05 262.478 378.2C262.098 378.21 261.748 378.52 261.758 378.92C261.978 384.3 261.528 389.85 262.418 395.18C263.248 400.15 268.698 400.53 272.908 400.77C278.308 401.08 286.008 401.27 289.108 398.42C292.708 395.1 291.308 383.73 291.118 378.46Z" fill="#A9D3E2"/>
<path d="M266.616 388.97C262.396 388.97 261.426 384.99 261.416 384.95C261.366 384.72 261.506 384.49 261.736 384.44C261.976 384.39 262.196 384.53 262.256 384.76C262.296 384.92 263.276 388.83 267.856 388C270.906 387.45 271.136 381.06 271.136 381C271.146 380.79 271.306 380.61 271.516 380.59C271.716 380.56 271.926 380.69 271.986 380.9C272.066 381.18 272.146 381.54 272.246 381.95C272.596 383.5 273.136 385.83 274.246 386.81C275.646 388.03 278.856 388.18 280.506 387.44C282.226 386.77 283.056 384.36 282.996 382.18C282.956 381.87 282.926 381.54 282.906 381.22C282.896 380.99 283.066 380.8 283.296 380.78C283.516 380.76 283.726 380.92 283.766 381.14C283.816 381.46 283.846 381.78 283.856 382.1C284.216 384.44 285.586 386.39 287.336 386.92C288.726 387.33 290.066 386.74 291.126 385.26C291.266 385.07 291.536 385.02 291.726 385.16C291.916 385.3 291.966 385.57 291.826 385.76C290.556 387.54 288.826 388.27 287.096 387.74C285.616 387.3 284.386 386.06 283.646 384.42C283.246 386.15 282.316 387.67 280.856 388.24C278.946 389.09 275.386 388.94 273.696 387.46C272.686 386.58 272.116 384.93 271.736 383.46C271.336 385.6 270.356 388.43 268.036 388.85C267.506 388.93 267.046 388.97 266.616 388.97Z" fill="#A3D0D8"/>
<path d="M275.799 375.859C272.839 375.859 262.799 375.989 261.699 378.259C260.229 381.439 276.569 381.189 279.729 381.089C294.679 380.589 296.469 375.109 275.799 375.859Z" fill="#709DA0"/>
<path d="M275.797 375.29C274.087 375.29 259.747 375.04 261.057 378.92C261.697 380.81 264.727 380.98 266.337 381.21C269.887 381.7 273.507 381.72 277.087 381.71C280.257 381.69 283.417 381.53 286.547 380.97C287.947 380.72 290.977 380.24 291.597 378.61C293.197 374.41 276.937 375.25 275.797 375.29C275.057 375.31 275.057 376.46 275.797 376.44C279.067 376.34 282.317 376.34 285.577 376.65C286.147 376.71 291.837 377.47 289.977 378.68C286.537 380.93 281.037 380.53 277.097 380.56C272.697 380.6 267.997 380.68 263.727 379.54C261.657 378.99 263.057 377.79 264.427 377.39C265.867 376.97 267.407 376.84 268.887 376.7C271.177 376.48 273.497 376.44 275.807 376.43C276.537 376.43 276.537 375.28 275.797 375.29Z" fill="#A3D0D8"/>
<path d="M291.318 344.178C291.128 355.488 290.728 366.798 290.578 378.098C290.568 378.648 291.428 378.648 291.438 378.098C291.588 366.798 291.998 355.478 292.178 344.178C292.188 343.628 291.328 343.628 291.318 344.178Z" fill="#82B7BC"/>
<path d="M259.567 343.991C259.917 355.441 260.067 366.851 261.267 378.251C261.327 378.791 262.187 378.801 262.127 378.251C260.927 366.851 260.777 355.441 260.427 343.991C260.407 343.441 259.547 343.441 259.567 343.991Z" fill="#82B7BC"/>
<path d="M275.056 345.908C276.016 357.448 274.816 369.028 275.816 380.568C275.866 381.118 276.726 381.118 276.676 380.568C275.666 369.028 276.876 357.448 275.916 345.908C275.876 345.358 275.016 345.348 275.056 345.908Z" fill="#82B7BC"/>
<path d="M335.606 245.668C331.996 236.518 325.346 227.408 314.936 225.528C314.856 225.518 314.786 225.518 314.716 225.508C314.656 225.498 314.606 225.478 314.546 225.478C306.776 224.688 302.256 232.438 299.516 238.368C294.586 249.088 292.426 261.098 290.486 272.618C286.686 295.288 282.766 320.128 289.416 342.598C289.776 343.838 291.436 343.998 292.126 342.948C299.236 332.018 313.906 328.278 323.286 319.558C333.086 310.448 338.066 297.128 339.656 284.238C341.286 271.098 340.506 258.098 335.606 245.668Z" fill="#A3D0D8"/>
<path d="M258.227 282.339C254.777 263.689 246.627 245.039 237.227 228.509C236.897 227.939 236.367 227.749 235.857 227.819C235.647 227.829 235.427 227.879 235.197 227.989C225.747 232.849 220.667 242.159 217.487 251.779C214.067 262.099 212.277 274.679 213.867 285.479C215.917 299.459 223.817 311.809 234.227 321.359C242.747 329.199 253.357 334.269 260.977 343.229C261.827 344.229 263.517 343.389 263.507 342.199C263.297 322.239 261.867 301.999 258.227 282.339Z" fill="#BCE0E8"/>
<path d="M303.179 214.716C294.829 210.156 285.069 209.386 275.839 211.216C275.269 211.326 274.949 211.666 274.829 212.076C269.249 220.036 268.429 231.166 267.619 240.476C266.329 255.116 266.679 269.906 267.329 284.566C268.209 304.326 269.869 324.136 272.389 343.766C272.489 344.546 272.989 345.216 273.869 345.216C279.529 345.216 285.189 345.216 290.859 345.216C291.359 345.216 291.899 344.946 292.139 344.496C307.819 315.696 312.209 281.056 314.839 248.946C315.439 241.626 315.919 234.276 316.039 226.936C316.109 222.076 306.719 216.646 303.179 214.716Z" fill="#BCE0E8"/>
<path d="M279.659 216.898C276.999 201.568 249.939 213.798 242.779 219.038C236.159 223.878 234.369 228.458 233.939 235.858C233.229 248.188 233.899 260.588 235.459 272.828C237.609 289.638 241.869 306.368 248.709 321.958C250.789 326.708 253.069 331.348 255.569 335.898C256.699 337.958 259.199 344.498 261.629 345.158C265.219 346.128 270.149 345.208 273.869 345.208C274.609 345.208 275.059 344.768 275.229 344.238C275.289 344.098 275.339 343.938 275.349 343.758C277.689 315.808 279.539 287.788 280.499 259.758C280.979 245.698 282.079 230.848 279.659 216.898Z" fill="#A3D0D8"/>
<path d="M259.176 345.856C270.136 347.896 281.706 347.766 292.656 345.856C295.786 345.316 294.456 341.116 291.336 341.666C281.306 343.406 270.536 343.536 260.496 341.666C257.376 341.076 256.056 345.276 259.176 345.856Z" fill="#82B7BC"/>
<path d="M158.049 73.2162C158.049 73.1562 158.029 73.1062 157.999 73.0662C157.949 72.9762 157.869 72.9062 157.739 72.9062C153.709 72.9763 149.679 73.0362 145.639 73.1062C145.479 73.1062 145.319 73.2462 145.329 73.4162C145.429 75.7462 145.229 78.1462 145.619 80.4562C145.979 82.6062 148.339 82.7762 150.159 82.8762C152.499 83.0162 155.839 83.0962 157.179 81.8562C158.729 80.4262 158.129 75.5062 158.049 73.2162Z" fill="#8CA8AF"/>
<path d="M147.437 77.7797C145.607 77.7797 145.187 76.0597 145.187 76.0397C145.167 75.9397 145.227 75.8397 145.327 75.8197C145.427 75.7997 145.527 75.8597 145.547 75.9597C145.567 76.0297 145.987 77.7197 147.977 77.3597C149.297 77.1197 149.397 74.3597 149.397 74.3297C149.397 74.2397 149.467 74.1597 149.557 74.1497C149.647 74.1397 149.737 74.1897 149.757 74.2797C149.787 74.3997 149.827 74.5597 149.867 74.7397C150.017 75.4097 150.247 76.4197 150.737 76.8497C151.347 77.3797 152.737 77.4397 153.447 77.1197C154.187 76.8297 154.557 75.7897 154.527 74.8397C154.507 74.6997 154.497 74.5597 154.487 74.4197C154.487 74.3197 154.557 74.2397 154.657 74.2297C154.747 74.2197 154.847 74.2897 154.857 74.3897C154.877 74.5297 154.887 74.6597 154.897 74.8097C155.057 75.8197 155.647 76.6697 156.407 76.8997C157.007 77.0797 157.587 76.8197 158.047 76.1797C158.107 76.0997 158.227 76.0797 158.307 76.1397C158.387 76.1997 158.407 76.3197 158.347 76.3997C157.797 77.1697 157.047 77.4897 156.297 77.2597C155.657 77.0697 155.117 76.5297 154.797 75.8197C154.627 76.5697 154.217 77.2297 153.587 77.4697C152.757 77.8397 151.217 77.7697 150.487 77.1297C150.047 76.7497 149.807 76.0297 149.637 75.3997C149.457 76.3297 149.037 77.5497 148.027 77.7397C147.817 77.7597 147.617 77.7797 147.437 77.7797Z" fill="#A9C0C9"/>
<path d="M151.409 72.0938C150.129 72.0938 145.779 72.1538 145.299 73.1338C144.659 74.5138 151.739 74.4038 153.109 74.3638C159.589 74.1438 160.359 71.7638 151.409 72.0938Z" fill="#6B7D7E"/>
<path d="M151.406 71.8465C150.666 71.8465 144.456 71.7365 145.016 73.4165C145.296 74.2365 146.606 74.3065 147.306 74.4065C148.846 74.6165 150.416 74.6265 151.966 74.6265C153.336 74.6165 154.706 74.5465 156.066 74.3065C156.676 74.1965 157.986 73.9865 158.256 73.2865C158.946 71.4665 151.896 71.8265 151.406 71.8465C151.086 71.8565 151.086 72.3565 151.406 72.3465C152.816 72.3065 154.236 72.2965 155.646 72.4365C155.896 72.4665 158.356 72.7865 157.556 73.3165C156.066 74.2865 153.686 74.1165 151.976 74.1365C150.066 74.1565 148.036 74.1865 146.186 73.6965C145.296 73.4565 145.896 72.9365 146.486 72.7665C147.106 72.5865 147.776 72.5265 148.416 72.4665C149.406 72.3665 150.416 72.3565 151.416 72.3465C151.726 72.3365 151.726 71.8465 151.406 71.8465Z" fill="#A9C0C9"/>
<path d="M158.14 58.3675C158.06 63.2675 157.88 68.1675 157.82 73.0675C157.82 73.3075 158.19 73.3075 158.19 73.0675C158.26 68.1675 158.43 63.2675 158.52 58.3675C158.51 58.1275 158.14 58.1275 158.14 58.3675Z" fill="#8CA8AF"/>
<path d="M144.379 58.2894C144.529 63.2494 144.599 68.1894 145.119 73.1294C145.139 73.3694 145.519 73.3694 145.489 73.1294C144.969 68.1894 144.909 63.2494 144.749 58.2894C144.739 58.0494 144.369 58.0494 144.379 58.2894Z" fill="#8CA8AF"/>
<path d="M151.091 59.1175C151.511 64.1175 150.981 69.1375 151.421 74.1375C151.441 74.3775 151.811 74.3775 151.791 74.1375C151.351 69.1375 151.881 64.1175 151.461 59.1175C151.441 58.8775 151.071 58.8775 151.091 59.1175Z" fill="#8CA8AF"/>
<path d="M177.319 15.698C175.759 11.738 172.879 7.78801 168.359 6.96801C168.329 6.95801 168.299 6.95801 168.259 6.95801C168.229 6.95801 168.209 6.94801 168.189 6.93801C164.819 6.59801 162.859 9.94801 161.679 12.528C159.549 17.168 158.609 22.368 157.769 27.368C156.129 37.188 154.429 47.948 157.309 57.688C157.469 58.218 158.189 58.298 158.479 57.838C161.559 53.108 167.919 51.478 171.979 47.708C176.229 43.758 178.379 37.988 179.069 32.408C179.779 26.708 179.449 21.078 177.319 15.698Z" fill="#A9C0C9"/>
<path d="M143.798 31.5791C142.298 23.4991 138.778 15.4191 134.698 8.25912C134.558 8.00912 134.328 7.92912 134.108 7.95912C134.018 7.95912 133.918 7.97912 133.818 8.03912C129.728 10.1491 127.518 14.1791 126.148 18.3491C124.668 22.8191 123.898 28.2691 124.578 32.9491C125.468 39.0091 128.888 44.3491 133.398 48.4891C137.088 51.8891 141.688 54.0891 144.978 57.9691C145.348 58.3991 146.078 58.0391 146.078 57.5291C145.998 48.8691 145.368 40.0991 143.798 31.5791Z" fill="#C7E0E8"/>
<path d="M163.267 2.29002C159.647 0.320021 155.427 -0.0199786 151.427 0.770021C151.177 0.820021 151.037 0.970021 150.987 1.14002C148.567 4.59002 148.217 9.41002 147.867 13.44C147.307 19.78 147.457 26.19 147.747 32.54C148.127 41.1 148.847 49.68 149.937 58.19C149.977 58.53 150.197 58.82 150.577 58.82C153.027 58.82 155.487 58.82 157.937 58.82C158.157 58.82 158.387 58.7 158.487 58.51C165.277 46.03 167.187 31.02 168.317 17.11C168.577 13.94 168.787 10.75 168.837 7.57002C168.867 5.47002 164.797 3.12002 163.267 2.29002Z" fill="#C7E0E8"/>
<path d="M153.079 3.2274C151.929 -3.4126 140.199 1.8874 137.099 4.1574C134.229 6.2574 133.449 8.2374 133.269 11.4474C132.959 16.7874 133.249 22.1574 133.929 27.4574C134.859 34.7374 136.709 41.9874 139.669 48.7374C140.569 50.7974 141.559 52.8074 142.639 54.7774C143.129 55.6674 144.209 58.5074 145.259 58.7874C146.819 59.2074 148.949 58.8074 150.569 58.8074C150.889 58.8074 151.089 58.6174 151.159 58.3874C151.189 58.3274 151.209 58.2574 151.209 58.1774C152.219 46.0674 153.019 33.9274 153.439 21.7874C153.649 15.7074 154.129 9.2674 153.079 3.2274Z" fill="#A9C0C9"/>
<path d="M144.209 59.0935C148.959 59.9835 153.969 59.9235 158.709 59.0935C160.069 58.8635 159.489 57.0435 158.139 57.2735C153.799 58.0335 149.129 58.0835 144.779 57.2735C143.429 57.0235 142.859 58.8435 144.209 59.0935Z" fill="#8CA8AF"/>
<path d="M186.707 200.169C185.75 200.169 184.929 200.006 184.242 199.679C183.555 199.341 183.026 198.829 182.655 198.143C182.283 197.445 182.075 196.572 182.03 195.526C182.019 195.03 182.013 194.557 182.013 194.107C182.013 193.646 182.019 193.167 182.03 192.672C182.075 191.636 182.289 190.775 182.672 190.089C183.066 189.391 183.606 188.873 184.293 188.535C184.99 188.186 185.795 188.012 186.707 188.012C187.63 188.012 188.435 188.186 189.122 188.535C189.819 188.873 190.365 189.391 190.759 190.089C191.153 190.775 191.367 191.636 191.401 192.672C191.424 193.167 191.435 193.646 191.435 194.107C191.435 194.557 191.424 195.03 191.401 195.526C191.367 196.572 191.159 197.445 190.776 198.143C190.405 198.829 189.876 199.341 189.189 199.679C188.502 200.006 187.675 200.169 186.707 200.169ZM186.707 198.734C187.574 198.734 188.277 198.475 188.818 197.957C189.369 197.439 189.668 196.601 189.713 195.441C189.735 194.935 189.746 194.484 189.746 194.09C189.746 193.685 189.735 193.235 189.713 192.74C189.69 191.963 189.544 191.332 189.274 190.848C189.015 190.364 188.666 190.01 188.227 189.785C187.788 189.56 187.281 189.447 186.707 189.447C186.155 189.447 185.66 189.56 185.221 189.785C184.782 190.01 184.428 190.364 184.157 190.848C183.899 191.332 183.752 191.963 183.718 192.74C183.707 193.235 183.702 193.685 183.702 194.09C183.702 194.484 183.707 194.935 183.718 195.441C183.763 196.601 184.062 197.439 184.613 197.957C185.165 198.475 185.863 198.734 186.707 198.734ZM194.065 200C193.952 200 193.856 199.966 193.778 199.899C193.71 199.82 193.676 199.724 193.676 199.612V191.608C193.676 191.496 193.71 191.406 193.778 191.338C193.856 191.259 193.952 191.22 194.065 191.22H194.841C194.954 191.22 195.044 191.259 195.112 191.338C195.19 191.406 195.23 191.496 195.23 191.608V198.649H198.32V191.608C198.32 191.496 198.353 191.406 198.421 191.338C198.5 191.259 198.596 191.22 198.708 191.22H199.417C199.541 191.22 199.637 191.259 199.704 191.338C199.772 191.406 199.806 191.496 199.806 191.608V198.649H202.895V191.608C202.895 191.496 202.929 191.406 202.997 191.338C203.076 191.259 203.171 191.22 203.284 191.22H204.061C204.173 191.22 204.263 191.259 204.331 191.338C204.41 191.406 204.449 191.496 204.449 191.608V199.612C204.449 199.724 204.41 199.82 204.331 199.899C204.263 199.966 204.173 200 204.061 200H194.065ZM207.338 200C207.237 200 207.147 199.966 207.068 199.899C207 199.82 206.967 199.735 206.967 199.645V191.608C206.967 191.496 207 191.406 207.068 191.338C207.147 191.259 207.242 191.22 207.355 191.22H208.165C208.278 191.22 208.368 191.259 208.436 191.338C208.503 191.406 208.537 191.496 208.537 191.608V198.767L208.098 198.312L213.214 191.473C213.27 191.406 213.332 191.349 213.4 191.304C213.467 191.248 213.552 191.22 213.653 191.22H214.43C214.52 191.22 214.599 191.254 214.666 191.321C214.745 191.389 214.784 191.468 214.784 191.558V199.612C214.784 199.724 214.745 199.82 214.666 199.899C214.599 199.966 214.508 200 214.396 200H213.602C213.478 200 213.383 199.966 213.315 199.899C213.248 199.82 213.214 199.724 213.214 199.612V192.875L213.687 192.858L208.537 199.747C208.492 199.803 208.436 199.859 208.368 199.916C208.3 199.972 208.21 200 208.098 200H207.338ZM220.97 200.169C220.104 200.169 219.378 200.006 218.792 199.679C218.218 199.341 217.779 198.869 217.475 198.261C217.183 197.642 217.025 196.927 217.002 196.116C216.991 195.779 216.986 195.441 216.986 195.103C216.986 194.766 216.991 194.428 217.002 194.09C217.002 193.066 217.087 192.216 217.256 191.541C217.425 190.865 217.678 190.314 218.016 189.886C218.365 189.447 218.804 189.087 219.333 188.805C219.862 188.524 220.486 188.282 221.207 188.079C221.927 187.865 222.749 187.64 223.672 187.404C223.773 187.381 223.869 187.398 223.959 187.455C224.06 187.511 224.117 187.59 224.128 187.691L224.263 188.383C224.285 188.485 224.269 188.575 224.212 188.653C224.167 188.732 224.094 188.783 223.993 188.805C223.149 189.019 222.411 189.205 221.781 189.363C221.151 189.52 220.621 189.706 220.194 189.92C219.766 190.122 219.423 190.387 219.164 190.713C218.905 191.04 218.725 191.473 218.623 192.013C218.533 192.554 218.505 193.246 218.539 194.09L218.168 193.938C218.224 193.522 218.398 193.145 218.691 192.807C218.995 192.458 219.372 192.177 219.822 191.963C220.273 191.749 220.751 191.642 221.257 191.642C222.034 191.642 222.687 191.805 223.216 192.132C223.756 192.458 224.167 192.903 224.449 193.466C224.741 194.028 224.905 194.676 224.938 195.407C224.961 195.79 224.961 196.122 224.938 196.404C224.905 197.135 224.736 197.788 224.432 198.362C224.128 198.925 223.689 199.37 223.115 199.696C222.541 200.011 221.826 200.169 220.97 200.169ZM220.97 198.919C221.68 198.919 222.242 198.7 222.659 198.261C223.075 197.822 223.295 197.18 223.317 196.336C223.329 196.223 223.334 196.094 223.334 195.948C223.334 195.801 223.329 195.649 223.317 195.492C223.295 194.636 223.075 193.989 222.659 193.55C222.254 193.111 221.741 192.891 221.122 192.891C220.413 192.891 219.828 193.111 219.366 193.55C218.905 193.989 218.657 194.636 218.623 195.492C218.612 195.649 218.607 195.801 218.607 195.948C218.607 196.094 218.612 196.223 218.623 196.336C218.657 197.18 218.882 197.822 219.299 198.261C219.715 198.7 220.273 198.919 220.97 198.919ZM227.455 200C227.343 200 227.247 199.966 227.168 199.899C227.101 199.82 227.067 199.724 227.067 199.612V191.608C227.067 191.496 227.101 191.406 227.168 191.338C227.247 191.259 227.343 191.22 227.455 191.22H228.249C228.361 191.22 228.451 191.259 228.519 191.338C228.598 191.406 228.637 191.496 228.637 191.608V194.85H230.174L232.453 191.473C232.509 191.394 232.571 191.332 232.639 191.287C232.706 191.242 232.796 191.22 232.909 191.22H233.787C233.888 191.22 233.973 191.242 234.04 191.287C234.108 191.332 234.141 191.4 234.141 191.49C234.141 191.513 234.13 191.546 234.108 191.591C234.096 191.625 234.08 191.659 234.057 191.693L231.524 195.424L234.395 199.51C234.451 199.578 234.479 199.651 234.479 199.73C234.479 199.82 234.445 199.887 234.378 199.932C234.322 199.977 234.243 200 234.141 200H233.112C233.01 200 232.926 199.977 232.858 199.932C232.791 199.887 232.729 199.826 232.673 199.747L230.19 196.218H228.637V199.612C228.637 199.724 228.598 199.82 228.519 199.899C228.451 199.966 228.361 200 228.249 200H227.455ZM238.568 200.169C238.005 200.169 237.493 200.056 237.031 199.831C236.57 199.606 236.198 199.302 235.917 198.919C235.635 198.537 235.495 198.103 235.495 197.619C235.495 196.843 235.81 196.223 236.44 195.762C237.07 195.3 237.892 194.996 238.905 194.85L241.421 194.496V194.006C241.421 193.466 241.263 193.043 240.948 192.74C240.644 192.436 240.143 192.284 239.446 192.284C238.939 192.284 238.528 192.385 238.213 192.588C237.909 192.79 237.695 193.049 237.571 193.364C237.504 193.533 237.386 193.618 237.217 193.618H236.457C236.333 193.618 236.237 193.584 236.17 193.516C236.114 193.437 236.085 193.347 236.085 193.246C236.085 193.077 236.147 192.869 236.271 192.621C236.406 192.374 236.609 192.132 236.879 191.895C237.149 191.659 237.493 191.462 237.909 191.304C238.337 191.135 238.855 191.051 239.462 191.051C240.138 191.051 240.706 191.141 241.168 191.321C241.629 191.49 241.99 191.721 242.248 192.013C242.519 192.306 242.71 192.638 242.823 193.01C242.946 193.381 243.008 193.758 243.008 194.141V199.612C243.008 199.724 242.969 199.82 242.89 199.899C242.823 199.966 242.732 200 242.62 200H241.843C241.719 200 241.624 199.966 241.556 199.899C241.489 199.82 241.455 199.724 241.455 199.612V198.886C241.309 199.088 241.112 199.291 240.864 199.493C240.616 199.685 240.307 199.848 239.935 199.983C239.564 200.107 239.108 200.169 238.568 200.169ZM238.922 198.902C239.384 198.902 239.806 198.807 240.188 198.615C240.571 198.413 240.869 198.103 241.083 197.687C241.309 197.27 241.421 196.747 241.421 196.116V195.644L239.462 195.931C238.663 196.043 238.061 196.235 237.656 196.505C237.251 196.764 237.048 197.096 237.048 197.501C237.048 197.816 237.138 198.081 237.318 198.295C237.509 198.497 237.746 198.649 238.027 198.751C238.32 198.852 238.618 198.902 238.922 198.902Z" fill="#20335D"/>
<path d="M186.707 200.169C185.75 200.169 184.929 200.006 184.242 199.679C183.555 199.341 183.026 198.829 182.655 198.143C182.283 197.445 182.075 196.572 182.03 195.526C182.019 195.03 182.013 194.557 182.013 194.107C182.013 193.646 182.019 193.167 182.03 192.672C182.075 191.636 182.289 190.775 182.672 190.089C183.066 189.391 183.606 188.873 184.293 188.535C184.99 188.186 185.795 188.012 186.707 188.012C187.63 188.012 188.435 188.186 189.122 188.535C189.819 188.873 190.365 189.391 190.759 190.089C191.153 190.775 191.367 191.636 191.401 192.672C191.424 193.167 191.435 193.646 191.435 194.107C191.435 194.557 191.424 195.03 191.401 195.526C191.367 196.572 191.159 197.445 190.776 198.143C190.405 198.829 189.876 199.341 189.189 199.679C188.502 200.006 187.675 200.169 186.707 200.169ZM186.707 198.734C187.574 198.734 188.277 198.475 188.818 197.957C189.369 197.439 189.668 196.601 189.713 195.441C189.735 194.935 189.746 194.484 189.746 194.09C189.746 193.685 189.735 193.235 189.713 192.74C189.69 191.963 189.544 191.332 189.274 190.848C189.015 190.364 188.666 190.01 188.227 189.785C187.788 189.56 187.281 189.447 186.707 189.447C186.155 189.447 185.66 189.56 185.221 189.785C184.782 190.01 184.428 190.364 184.157 190.848C183.899 191.332 183.752 191.963 183.718 192.74C183.707 193.235 183.702 193.685 183.702 194.09C183.702 194.484 183.707 194.935 183.718 195.441C183.763 196.601 184.062 197.439 184.613 197.957C185.165 198.475 185.863 198.734 186.707 198.734ZM194.065 200C193.952 200 193.856 199.966 193.778 199.899C193.71 199.82 193.676 199.724 193.676 199.612V191.608C193.676 191.496 193.71 191.406 193.778 191.338C193.856 191.259 193.952 191.22 194.065 191.22H194.841C194.954 191.22 195.044 191.259 195.112 191.338C195.19 191.406 195.23 191.496 195.23 191.608V198.649H198.32V191.608C198.32 191.496 198.353 191.406 198.421 191.338C198.5 191.259 198.596 191.22 198.708 191.22H199.417C199.541 191.22 199.637 191.259 199.704 191.338C199.772 191.406 199.806 191.496 199.806 191.608V198.649H202.895V191.608C202.895 191.496 202.929 191.406 202.997 191.338C203.076 191.259 203.171 191.22 203.284 191.22H204.061C204.173 191.22 204.263 191.259 204.331 191.338C204.41 191.406 204.449 191.496 204.449 191.608V199.612C204.449 199.724 204.41 199.82 204.331 199.899C204.263 199.966 204.173 200 204.061 200H194.065ZM207.338 200C207.237 200 207.147 199.966 207.068 199.899C207 199.82 206.967 199.735 206.967 199.645V191.608C206.967 191.496 207 191.406 207.068 191.338C207.147 191.259 207.242 191.22 207.355 191.22H208.165C208.278 191.22 208.368 191.259 208.436 191.338C208.503 191.406 208.537 191.496 208.537 191.608V198.767L208.098 198.312L213.214 191.473C213.27 191.406 213.332 191.349 213.4 191.304C213.467 191.248 213.552 191.22 213.653 191.22H214.43C214.52 191.22 214.599 191.254 214.666 191.321C214.745 191.389 214.784 191.468 214.784 191.558V199.612C214.784 199.724 214.745 199.82 214.666 199.899C214.599 199.966 214.508 200 214.396 200H213.602C213.478 200 213.383 199.966 213.315 199.899C213.248 199.82 213.214 199.724 213.214 199.612V192.875L213.687 192.858L208.537 199.747C208.492 199.803 208.436 199.859 208.368 199.916C208.3 199.972 208.21 200 208.098 200H207.338ZM220.97 200.169C220.104 200.169 219.378 200.006 218.792 199.679C218.218 199.341 217.779 198.869 217.475 198.261C217.183 197.642 217.025 196.927 217.002 196.116C216.991 195.779 216.986 195.441 216.986 195.103C216.986 194.766 216.991 194.428 217.002 194.09C217.002 193.066 217.087 192.216 217.256 191.541C217.425 190.865 217.678 190.314 218.016 189.886C218.365 189.447 218.804 189.087 219.333 188.805C219.862 188.524 220.486 188.282 221.207 188.079C221.927 187.865 222.749 187.64 223.672 187.404C223.773 187.381 223.869 187.398 223.959 187.455C224.06 187.511 224.117 187.59 224.128 187.691L224.263 188.383C224.285 188.485 224.269 188.575 224.212 188.653C224.167 188.732 224.094 188.783 223.993 188.805C223.149 189.019 222.411 189.205 221.781 189.363C221.151 189.52 220.621 189.706 220.194 189.92C219.766 190.122 219.423 190.387 219.164 190.713C218.905 191.04 218.725 191.473 218.623 192.013C218.533 192.554 218.505 193.246 218.539 194.09L218.168 193.938C218.224 193.522 218.398 193.145 218.691 192.807C218.995 192.458 219.372 192.177 219.822 191.963C220.273 191.749 220.751 191.642 221.257 191.642C222.034 191.642 222.687 191.805 223.216 192.132C223.756 192.458 224.167 192.903 224.449 193.466C224.741 194.028 224.905 194.676 224.938 195.407C224.961 195.79 224.961 196.122 224.938 196.404C224.905 197.135 224.736 197.788 224.432 198.362C224.128 198.925 223.689 199.37 223.115 199.696C222.541 200.011 221.826 200.169 220.97 200.169ZM220.97 198.919C221.68 198.919 222.242 198.7 222.659 198.261C223.075 197.822 223.295 197.18 223.317 196.336C223.329 196.223 223.334 196.094 223.334 195.948C223.334 195.801 223.329 195.649 223.317 195.492C223.295 194.636 223.075 193.989 222.659 193.55C222.254 193.111 221.741 192.891 221.122 192.891C220.413 192.891 219.828 193.111 219.366 193.55C218.905 193.989 218.657 194.636 218.623 195.492C218.612 195.649 218.607 195.801 218.607 195.948C218.607 196.094 218.612 196.223 218.623 196.336C218.657 197.18 218.882 197.822 219.299 198.261C219.715 198.7 220.273 198.919 220.97 198.919ZM227.455 200C227.343 200 227.247 199.966 227.168 199.899C227.101 199.82 227.067 199.724 227.067 199.612V191.608C227.067 191.496 227.101 191.406 227.168 191.338C227.247 191.259 227.343 191.22 227.455 191.22H228.249C228.361 191.22 228.451 191.259 228.519 191.338C228.598 191.406 228.637 191.496 228.637 191.608V194.85H230.174L232.453 191.473C232.509 191.394 232.571 191.332 232.639 191.287C232.706 191.242 232.796 191.22 232.909 191.22H233.787C233.888 191.22 233.973 191.242 234.04 191.287C234.108 191.332 234.141 191.4 234.141 191.49C234.141 191.513 234.13 191.546 234.108 191.591C234.096 191.625 234.08 191.659 234.057 191.693L231.524 195.424L234.395 199.51C234.451 199.578 234.479 199.651 234.479 199.73C234.479 199.82 234.445 199.887 234.378 199.932C234.322 199.977 234.243 200 234.141 200H233.112C233.01 200 232.926 199.977 232.858 199.932C232.791 199.887 232.729 199.826 232.673 199.747L230.19 196.218H228.637V199.612C228.637 199.724 228.598 199.82 228.519 199.899C228.451 199.966 228.361 200 228.249 200H227.455ZM238.568 200.169C238.005 200.169 237.493 200.056 237.031 199.831C236.57 199.606 236.198 199.302 235.917 198.919C235.635 198.537 235.495 198.103 235.495 197.619C235.495 196.843 235.81 196.223 236.44 195.762C237.07 195.3 237.892 194.996 238.905 194.85L241.421 194.496V194.006C241.421 193.466 241.263 193.043 240.948 192.74C240.644 192.436 240.143 192.284 239.446 192.284C238.939 192.284 238.528 192.385 238.213 192.588C237.909 192.79 237.695 193.049 237.571 193.364C237.504 193.533 237.386 193.618 237.217 193.618H236.457C236.333 193.618 236.237 193.584 236.17 193.516C236.114 193.437 236.085 193.347 236.085 193.246C236.085 193.077 236.147 192.869 236.271 192.621C236.406 192.374 236.609 192.132 236.879 191.895C237.149 191.659 237.493 191.462 237.909 191.304C238.337 191.135 238.855 191.051 239.462 191.051C240.138 191.051 240.706 191.141 241.168 191.321C241.629 191.49 241.99 191.721 242.248 192.013C242.519 192.306 242.71 192.638 242.823 193.01C242.946 193.381 243.008 193.758 243.008 194.141V199.612C243.008 199.724 242.969 199.82 242.89 199.899C242.823 199.966 242.732 200 242.62 200H241.843C241.719 200 241.624 199.966 241.556 199.899C241.489 199.82 241.455 199.724 241.455 199.612V198.886C241.309 199.088 241.112 199.291 240.864 199.493C240.616 199.685 240.307 199.848 239.935 199.983C239.564 200.107 239.108 200.169 238.568 200.169ZM238.922 198.902C239.384 198.902 239.806 198.807 240.188 198.615C240.571 198.413 240.869 198.103 241.083 197.687C241.309 197.27 241.421 196.747 241.421 196.116V195.644L239.462 195.931C238.663 196.043 238.061 196.235 237.656 196.505C237.251 196.764 237.048 197.096 237.048 197.501C237.048 197.816 237.138 198.081 237.318 198.295C237.509 198.497 237.746 198.649 238.027 198.751C238.32 198.852 238.618 198.902 238.922 198.902Z" fill="black" fill-opacity="0.2"/>
<path d="M197.663 173C197.027 173 196.487 172.778 196.042 172.333C195.597 171.888 195.375 171.347 195.375 170.712V158.507H165.149C164.45 158.507 163.878 158.284 163.433 157.839C163.051 157.394 162.86 156.854 162.86 156.218V149.735C162.86 149.353 162.924 148.908 163.051 148.4C163.242 147.828 163.528 147.319 163.909 146.874L192.037 107.876C192.864 106.796 194.04 106.255 195.565 106.255H205.959C206.594 106.255 207.134 106.478 207.579 106.923C208.024 107.368 208.247 107.908 208.247 108.544V147.256H216.733C217.496 147.256 218.068 147.478 218.449 147.923C218.894 148.304 219.117 148.845 219.117 149.544V156.218C219.117 156.854 218.894 157.394 218.449 157.839C218.004 158.284 217.464 158.507 216.828 158.507H208.247V170.712C208.247 171.347 208.024 171.888 207.579 172.333C207.134 172.778 206.594 173 205.959 173H197.663ZM176.114 147.637H195.661V120.081L176.114 147.637ZM253.475 173.953C248.962 173.953 245.116 173.286 241.938 171.951C238.76 170.616 236.154 168.773 234.119 166.421C232.085 164.069 230.56 161.367 229.543 158.316C228.526 155.201 227.922 151.896 227.731 148.4C227.667 146.684 227.604 144.808 227.54 142.774C227.54 140.676 227.54 138.579 227.54 136.481C227.604 134.383 227.667 132.445 227.731 130.665C227.858 127.169 228.462 123.895 229.543 120.844C230.623 117.729 232.181 115.027 234.215 112.739C236.312 110.451 238.95 108.639 242.129 107.304C245.307 105.969 249.089 105.302 253.475 105.302C257.925 105.302 261.739 105.969 264.917 107.304C268.096 108.639 270.702 110.451 272.736 112.739C274.834 115.027 276.391 117.729 277.408 120.844C278.489 123.895 279.093 127.169 279.22 130.665C279.347 132.445 279.41 134.383 279.41 136.481C279.41 138.579 279.41 140.676 279.41 142.774C279.41 144.808 279.347 146.684 279.22 148.4C279.093 151.896 278.521 155.201 277.503 158.316C276.486 161.367 274.961 164.069 272.927 166.421C270.893 168.773 268.255 170.616 265.013 171.951C261.834 173.286 257.989 173.953 253.475 173.953ZM253.475 162.988C257.607 162.988 260.627 161.653 262.534 158.984C264.504 156.25 265.521 152.563 265.585 147.923C265.712 146.08 265.775 144.236 265.775 142.393C265.775 140.486 265.775 138.579 265.775 136.672C265.775 134.765 265.712 132.953 265.585 131.237C265.521 126.724 264.504 123.1 262.534 120.367C260.627 117.57 257.607 116.172 253.475 116.172C249.407 116.172 246.388 117.57 244.417 120.367C242.51 123.1 241.493 126.724 241.366 131.237C241.366 132.953 241.334 134.765 241.271 136.672C241.271 138.579 241.271 140.486 241.271 142.393C241.334 144.236 241.366 146.08 241.366 147.923C241.493 152.563 242.542 156.25 244.513 158.984C246.483 161.653 249.471 162.988 253.475 162.988ZM322.53 173C321.894 173 321.354 172.778 320.909 172.333C320.464 171.888 320.242 171.347 320.242 170.712V158.507H290.016C289.317 158.507 288.745 158.284 288.3 157.839C287.918 157.394 287.727 156.854 287.727 156.218V149.735C287.727 149.353 287.791 148.908 287.918 148.4C288.109 147.828 288.395 147.319 288.776 146.874L316.904 107.876C317.731 106.796 318.907 106.255 320.432 106.255H330.826C331.461 106.255 332.001 106.478 332.446 106.923C332.891 107.368 333.114 107.908 333.114 108.544V147.256H341.6C342.363 147.256 342.935 147.478 343.316 147.923C343.761 148.304 343.984 148.845 343.984 149.544V156.218C343.984 156.854 343.761 157.394 343.316 157.839C342.871 158.284 342.331 158.507 341.695 158.507H333.114V170.712C333.114 171.347 332.891 171.888 332.446 172.333C332.001 172.778 331.461 173 330.826 173H322.53ZM300.981 147.637H320.528V120.081L300.981 147.637Z" fill="#20335D"/>
<path d="M197.663 173C197.027 173 196.487 172.778 196.042 172.333C195.597 171.888 195.375 171.347 195.375 170.712V158.507H165.149C164.45 158.507 163.878 158.284 163.433 157.839C163.051 157.394 162.86 156.854 162.86 156.218V149.735C162.86 149.353 162.924 148.908 163.051 148.4C163.242 147.828 163.528 147.319 163.909 146.874L192.037 107.876C192.864 106.796 194.04 106.255 195.565 106.255H205.959C206.594 106.255 207.134 106.478 207.579 106.923C208.024 107.368 208.247 107.908 208.247 108.544V147.256H216.733C217.496 147.256 218.068 147.478 218.449 147.923C218.894 148.304 219.117 148.845 219.117 149.544V156.218C219.117 156.854 218.894 157.394 218.449 157.839C218.004 158.284 217.464 158.507 216.828 158.507H208.247V170.712C208.247 171.347 208.024 171.888 207.579 172.333C207.134 172.778 206.594 173 205.959 173H197.663ZM176.114 147.637H195.661V120.081L176.114 147.637ZM253.475 173.953C248.962 173.953 245.116 173.286 241.938 171.951C238.76 170.616 236.154 168.773 234.119 166.421C232.085 164.069 230.56 161.367 229.543 158.316C228.526 155.201 227.922 151.896 227.731 148.4C227.667 146.684 227.604 144.808 227.54 142.774C227.54 140.676 227.54 138.579 227.54 136.481C227.604 134.383 227.667 132.445 227.731 130.665C227.858 127.169 228.462 123.895 229.543 120.844C230.623 117.729 232.181 115.027 234.215 112.739C236.312 110.451 238.95 108.639 242.129 107.304C245.307 105.969 249.089 105.302 253.475 105.302C257.925 105.302 261.739 105.969 264.917 107.304C268.096 108.639 270.702 110.451 272.736 112.739C274.834 115.027 276.391 117.729 277.408 120.844C278.489 123.895 279.093 127.169 279.22 130.665C279.347 132.445 279.41 134.383 279.41 136.481C279.41 138.579 279.41 140.676 279.41 142.774C279.41 144.808 279.347 146.684 279.22 148.4C279.093 151.896 278.521 155.201 277.503 158.316C276.486 161.367 274.961 164.069 272.927 166.421C270.893 168.773 268.255 170.616 265.013 171.951C261.834 173.286 257.989 173.953 253.475 173.953ZM253.475 162.988C257.607 162.988 260.627 161.653 262.534 158.984C264.504 156.25 265.521 152.563 265.585 147.923C265.712 146.08 265.775 144.236 265.775 142.393C265.775 140.486 265.775 138.579 265.775 136.672C265.775 134.765 265.712 132.953 265.585 131.237C265.521 126.724 264.504 123.1 262.534 120.367C260.627 117.57 257.607 116.172 253.475 116.172C249.407 116.172 246.388 117.57 244.417 120.367C242.51 123.1 241.493 126.724 241.366 131.237C241.366 132.953 241.334 134.765 241.271 136.672C241.271 138.579 241.271 140.486 241.271 142.393C241.334 144.236 241.366 146.08 241.366 147.923C241.493 152.563 242.542 156.25 244.513 158.984C246.483 161.653 249.471 162.988 253.475 162.988ZM322.53 173C321.894 173 321.354 172.778 320.909 172.333C320.464 171.888 320.242 171.347 320.242 170.712V158.507H290.016C289.317 158.507 288.745 158.284 288.3 157.839C287.918 157.394 287.727 156.854 287.727 156.218V149.735C287.727 149.353 287.791 148.908 287.918 148.4C288.109 147.828 288.395 147.319 288.776 146.874L316.904 107.876C317.731 106.796 318.907 106.255 320.432 106.255H330.826C331.461 106.255 332.001 106.478 332.446 106.923C332.891 107.368 333.114 107.908 333.114 108.544V147.256H341.6C342.363 147.256 342.935 147.478 343.316 147.923C343.761 148.304 343.984 148.845 343.984 149.544V156.218C343.984 156.854 343.761 157.394 343.316 157.839C342.871 158.284 342.331 158.507 341.695 158.507H333.114V170.712C333.114 171.347 332.891 171.888 332.446 172.333C332.001 172.778 331.461 173 330.826 173H322.53ZM300.981 147.637H320.528V120.081L300.981 147.637Z" fill="black" fill-opacity="0.2"/>
<path d="M196.306 90.2682C194.714 90.2682 193.347 90.0089 192.203 89.4905C191.058 88.9541 190.164 88.1407 189.521 87.0501C188.877 85.9417 188.529 84.5651 188.475 82.9203C188.457 82.1515 188.448 81.3917 188.448 80.6408C188.448 79.89 188.457 79.1212 188.475 78.3346C188.529 76.7077 188.886 75.3489 189.548 74.2584C190.209 73.1678 191.112 72.3454 192.256 71.7912C193.418 71.237 194.768 70.9599 196.306 70.9599C197.843 70.9599 199.193 71.237 200.355 71.7912C201.517 72.3454 202.429 73.1678 203.09 74.2584C203.752 75.3489 204.109 76.7077 204.163 78.3346C204.199 79.1212 204.217 79.89 204.217 80.6408C204.217 81.3917 204.199 82.1515 204.163 82.9203C204.109 84.5651 203.761 85.9417 203.117 87.0501C202.473 88.1407 201.571 88.9541 200.409 89.4905C199.264 90.0089 197.897 90.2682 196.306 90.2682ZM196.306 87.1842C197.468 87.1842 198.415 86.8445 199.148 86.1652C199.881 85.4679 200.274 84.3416 200.328 82.7862C200.364 81.9996 200.382 81.2755 200.382 80.614C200.382 79.9346 200.364 79.2106 200.328 78.4418C200.292 77.4049 200.096 76.5646 199.738 75.921C199.398 75.2595 198.934 74.7858 198.344 74.4997C197.754 74.1958 197.074 74.0438 196.306 74.0438C195.555 74.0438 194.884 74.1958 194.294 74.4997C193.704 74.7858 193.231 75.2595 192.873 75.921C192.533 76.5646 192.346 77.4049 192.31 78.4418C192.292 79.2106 192.283 79.9346 192.283 80.614C192.283 81.2755 192.292 81.9996 192.31 82.7862C192.363 84.3416 192.757 85.4679 193.49 86.1652C194.223 86.8445 195.161 87.1842 196.306 87.1842ZM213.584 90.2682C212.154 90.2682 210.947 90.0179 209.964 89.5173C208.998 89.0167 208.256 88.3105 207.738 87.3987C207.237 86.487 206.951 85.4232 206.88 84.2075C206.862 83.8857 206.853 83.4924 206.853 83.0276C206.853 82.5627 206.862 82.1694 206.88 81.8476C206.951 80.614 207.246 79.5503 207.765 78.6564C208.301 77.7446 209.052 77.0384 210.017 76.5378C211.001 76.0372 212.19 75.7869 213.584 75.7869C214.979 75.7869 216.159 76.0372 217.124 76.5378C218.107 77.0384 218.858 77.7446 219.377 78.6564C219.913 79.5503 220.217 80.614 220.288 81.8476C220.306 82.1694 220.315 82.5627 220.315 83.0276C220.315 83.4924 220.306 83.8857 220.288 84.2075C220.217 85.4232 219.922 86.487 219.403 87.3987C218.903 88.3105 218.161 89.0167 217.178 89.5173C216.212 90.0179 215.014 90.2682 213.584 90.2682ZM213.584 87.6133C214.532 87.6133 215.265 87.3183 215.783 86.7283C216.302 86.1205 216.588 85.2355 216.641 84.0734C216.659 83.8052 216.668 83.4566 216.668 83.0276C216.668 82.5985 216.659 82.2499 216.641 81.9817C216.588 80.8375 216.302 79.9615 215.783 79.3536C215.265 78.7458 214.532 78.4418 213.584 78.4418C212.637 78.4418 211.904 78.7458 211.385 79.3536C210.867 79.9615 210.581 80.8375 210.527 81.9817C210.509 82.2499 210.5 82.5985 210.5 83.0276C210.5 83.4566 210.509 83.8052 210.527 84.0734C210.581 85.2355 210.867 86.1205 211.385 86.7283C211.904 87.3183 212.637 87.6133 213.584 87.6133ZM223.957 95.0952C223.778 95.0952 223.626 95.0327 223.501 94.9075C223.376 94.7824 223.313 94.6304 223.313 94.4516V76.6987C223.313 76.5199 223.376 76.368 223.501 76.2428C223.626 76.1177 223.778 76.0551 223.957 76.0551H226.075C226.272 76.0551 226.424 76.1177 226.531 76.2428C226.656 76.368 226.719 76.5199 226.719 76.6987V77.7714C227.148 77.1993 227.711 76.7255 228.409 76.3501C229.106 75.9747 229.973 75.7869 231.01 75.7869C231.957 75.7869 232.78 75.9389 233.477 76.2428C234.174 76.5468 234.755 76.9848 235.22 77.5569C235.685 78.1111 236.042 78.7726 236.293 79.5413C236.543 80.3101 236.686 81.1593 236.722 82.089C236.74 82.3929 236.749 82.7057 236.749 83.0276C236.749 83.3494 236.74 83.6712 236.722 83.993C236.704 84.8869 236.57 85.7182 236.32 86.487C236.069 87.2378 235.703 87.8993 235.22 88.4714C234.755 89.0256 234.174 89.4637 233.477 89.7855C232.78 90.1073 231.957 90.2682 231.01 90.2682C230.044 90.2682 229.222 90.0983 228.543 89.7586C227.863 89.4011 227.309 88.9363 226.88 88.3642V94.4516C226.88 94.6304 226.817 94.7824 226.692 94.9075C226.585 95.0327 226.433 95.0952 226.236 95.0952H223.957ZM230.018 87.3987C230.786 87.3987 231.385 87.2378 231.814 86.916C232.243 86.5764 232.547 86.1383 232.726 85.602C232.923 85.0657 233.039 84.4757 233.075 83.8321C233.11 83.2957 233.11 82.7594 233.075 82.223C233.039 81.5794 232.923 80.9895 232.726 80.4531C232.547 79.9168 232.243 79.4877 231.814 79.1659C231.385 78.8262 230.786 78.6564 230.018 78.6564C229.285 78.6564 228.686 78.8262 228.221 79.1659C227.774 79.5056 227.443 79.9436 227.229 80.4799C227.032 80.9984 226.916 81.5347 226.88 82.089C226.862 82.4108 226.853 82.7504 226.853 83.108C226.853 83.4656 226.862 83.8142 226.88 84.1539C226.898 84.6902 227.023 85.2087 227.255 85.7093C227.488 86.192 227.827 86.5942 228.274 86.916C228.721 87.2378 229.302 87.3987 230.018 87.3987ZM245.042 90.2682C243.969 90.2682 243.049 90.143 242.28 89.8927C241.529 89.6424 240.912 89.3296 240.43 88.9541C239.947 88.5787 239.589 88.2033 239.357 87.8278C239.124 87.4524 238.999 87.1395 238.981 86.8892C238.964 86.6926 239.017 86.5406 239.142 86.4333C239.285 86.3082 239.437 86.2456 239.598 86.2456H241.717C241.788 86.2456 241.851 86.2545 241.904 86.2724C241.958 86.2903 242.03 86.3439 242.119 86.4333C242.351 86.63 242.593 86.8356 242.843 87.0501C243.111 87.2647 243.424 87.4524 243.782 87.6133C244.139 87.7563 244.586 87.8278 245.123 87.8278C245.82 87.8278 246.401 87.6937 246.866 87.4256C247.348 87.1395 247.59 86.7373 247.59 86.2188C247.59 85.8433 247.482 85.5394 247.268 85.307C247.071 85.0746 246.696 84.869 246.142 84.6902C245.587 84.4936 244.801 84.288 243.782 84.0734C242.78 83.841 241.949 83.546 241.288 83.1885C240.626 82.8309 240.135 82.3839 239.813 81.8476C239.491 81.3113 239.33 80.6855 239.33 79.9704C239.33 79.2732 239.536 78.6117 239.947 77.9859C240.376 77.3423 241.002 76.8149 241.824 76.4037C242.664 75.9925 243.701 75.7869 244.935 75.7869C245.9 75.7869 246.74 75.9121 247.456 76.1624C248.171 76.3948 248.761 76.6898 249.226 77.0473C249.708 77.4049 250.075 77.7714 250.325 78.1468C250.575 78.5044 250.709 78.8173 250.727 79.0854C250.745 79.2821 250.692 79.443 250.566 79.5681C250.441 79.6754 250.298 79.7291 250.137 79.7291H248.153C248.063 79.7291 247.983 79.7112 247.911 79.6754C247.84 79.6397 247.768 79.595 247.697 79.5413C247.5 79.3625 247.286 79.1748 247.053 78.9782C246.821 78.7815 246.535 78.6117 246.195 78.4686C245.873 78.3077 245.444 78.2273 244.908 78.2273C244.229 78.2273 243.71 78.3793 243.353 78.6832C242.995 78.9692 242.816 79.3357 242.816 79.7827C242.816 80.0866 242.897 80.3548 243.058 80.5872C243.236 80.8017 243.585 81.0073 244.103 81.204C244.622 81.4006 245.409 81.6062 246.463 81.8208C247.661 82.0353 248.609 82.3571 249.306 82.7862C250.021 83.1974 250.522 83.6801 250.808 84.2343C251.112 84.7707 251.264 85.3696 251.264 86.0311C251.264 86.8356 251.022 87.5596 250.54 88.2033C250.075 88.8469 249.377 89.3564 248.448 89.7318C247.536 90.0894 246.401 90.2682 245.042 90.2682ZM254.756 84.7975C254.577 84.7975 254.425 84.7438 254.3 84.6366C254.175 84.5114 254.112 84.3505 254.112 84.1539V71.8716C254.112 71.6929 254.175 71.5409 254.3 71.4157C254.425 71.2906 254.577 71.228 254.756 71.228H256.928C257.125 71.228 257.277 71.2906 257.384 71.4157C257.509 71.5409 257.572 71.6929 257.572 71.8716V84.1539C257.572 84.3505 257.509 84.5114 257.384 84.6366C257.277 84.7438 257.125 84.7975 256.928 84.7975H254.756ZM254.595 90C254.398 90 254.237 89.9374 254.112 89.8123C254.005 89.6871 253.951 89.5352 253.951 89.3564V86.8624C253.951 86.6657 254.005 86.5048 254.112 86.3797C254.237 86.2545 254.398 86.192 254.595 86.192H257.089C257.286 86.192 257.447 86.2545 257.572 86.3797C257.697 86.5048 257.759 86.6657 257.759 86.8624V89.3564C257.759 89.5352 257.697 89.6871 257.572 89.8123C257.447 89.9374 257.286 90 257.089 90H254.595Z" fill="#20335D"/>
<path d="M196.306 90.2682C194.714 90.2682 193.347 90.0089 192.203 89.4905C191.058 88.9541 190.164 88.1407 189.521 87.0501C188.877 85.9417 188.529 84.5651 188.475 82.9203C188.457 82.1515 188.448 81.3917 188.448 80.6408C188.448 79.89 188.457 79.1212 188.475 78.3346C188.529 76.7077 188.886 75.3489 189.548 74.2584C190.209 73.1678 191.112 72.3454 192.256 71.7912C193.418 71.237 194.768 70.9599 196.306 70.9599C197.843 70.9599 199.193 71.237 200.355 71.7912C201.517 72.3454 202.429 73.1678 203.09 74.2584C203.752 75.3489 204.109 76.7077 204.163 78.3346C204.199 79.1212 204.217 79.89 204.217 80.6408C204.217 81.3917 204.199 82.1515 204.163 82.9203C204.109 84.5651 203.761 85.9417 203.117 87.0501C202.473 88.1407 201.571 88.9541 200.409 89.4905C199.264 90.0089 197.897 90.2682 196.306 90.2682ZM196.306 87.1842C197.468 87.1842 198.415 86.8445 199.148 86.1652C199.881 85.4679 200.274 84.3416 200.328 82.7862C200.364 81.9996 200.382 81.2755 200.382 80.614C200.382 79.9346 200.364 79.2106 200.328 78.4418C200.292 77.4049 200.096 76.5646 199.738 75.921C199.398 75.2595 198.934 74.7858 198.344 74.4997C197.754 74.1958 197.074 74.0438 196.306 74.0438C195.555 74.0438 194.884 74.1958 194.294 74.4997C193.704 74.7858 193.231 75.2595 192.873 75.921C192.533 76.5646 192.346 77.4049 192.31 78.4418C192.292 79.2106 192.283 79.9346 192.283 80.614C192.283 81.2755 192.292 81.9996 192.31 82.7862C192.363 84.3416 192.757 85.4679 193.49 86.1652C194.223 86.8445 195.161 87.1842 196.306 87.1842ZM213.584 90.2682C212.154 90.2682 210.947 90.0179 209.964 89.5173C208.998 89.0167 208.256 88.3105 207.738 87.3987C207.237 86.487 206.951 85.4232 206.88 84.2075C206.862 83.8857 206.853 83.4924 206.853 83.0276C206.853 82.5627 206.862 82.1694 206.88 81.8476C206.951 80.614 207.246 79.5503 207.765 78.6564C208.301 77.7446 209.052 77.0384 210.017 76.5378C211.001 76.0372 212.19 75.7869 213.584 75.7869C214.979 75.7869 216.159 76.0372 217.124 76.5378C218.107 77.0384 218.858 77.7446 219.377 78.6564C219.913 79.5503 220.217 80.614 220.288 81.8476C220.306 82.1694 220.315 82.5627 220.315 83.0276C220.315 83.4924 220.306 83.8857 220.288 84.2075C220.217 85.4232 219.922 86.487 219.403 87.3987C218.903 88.3105 218.161 89.0167 217.178 89.5173C216.212 90.0179 215.014 90.2682 213.584 90.2682ZM213.584 87.6133C214.532 87.6133 215.265 87.3183 215.783 86.7283C216.302 86.1205 216.588 85.2355 216.641 84.0734C216.659 83.8052 216.668 83.4566 216.668 83.0276C216.668 82.5985 216.659 82.2499 216.641 81.9817C216.588 80.8375 216.302 79.9615 215.783 79.3536C215.265 78.7458 214.532 78.4418 213.584 78.4418C212.637 78.4418 211.904 78.7458 211.385 79.3536C210.867 79.9615 210.581 80.8375 210.527 81.9817C210.509 82.2499 210.5 82.5985 210.5 83.0276C210.5 83.4566 210.509 83.8052 210.527 84.0734C210.581 85.2355 210.867 86.1205 211.385 86.7283C211.904 87.3183 212.637 87.6133 213.584 87.6133ZM223.957 95.0952C223.778 95.0952 223.626 95.0327 223.501 94.9075C223.376 94.7824 223.313 94.6304 223.313 94.4516V76.6987C223.313 76.5199 223.376 76.368 223.501 76.2428C223.626 76.1177 223.778 76.0551 223.957 76.0551H226.075C226.272 76.0551 226.424 76.1177 226.531 76.2428C226.656 76.368 226.719 76.5199 226.719 76.6987V77.7714C227.148 77.1993 227.711 76.7255 228.409 76.3501C229.106 75.9747 229.973 75.7869 231.01 75.7869C231.957 75.7869 232.78 75.9389 233.477 76.2428C234.174 76.5468 234.755 76.9848 235.22 77.5569C235.685 78.1111 236.042 78.7726 236.293 79.5413C236.543 80.3101 236.686 81.1593 236.722 82.089C236.74 82.3929 236.749 82.7057 236.749 83.0276C236.749 83.3494 236.74 83.6712 236.722 83.993C236.704 84.8869 236.57 85.7182 236.32 86.487C236.069 87.2378 235.703 87.8993 235.22 88.4714C234.755 89.0256 234.174 89.4637 233.477 89.7855C232.78 90.1073 231.957 90.2682 231.01 90.2682C230.044 90.2682 229.222 90.0983 228.543 89.7586C227.863 89.4011 227.309 88.9363 226.88 88.3642V94.4516C226.88 94.6304 226.817 94.7824 226.692 94.9075C226.585 95.0327 226.433 95.0952 226.236 95.0952H223.957ZM230.018 87.3987C230.786 87.3987 231.385 87.2378 231.814 86.916C232.243 86.5764 232.547 86.1383 232.726 85.602C232.923 85.0657 233.039 84.4757 233.075 83.8321C233.11 83.2957 233.11 82.7594 233.075 82.223C233.039 81.5794 232.923 80.9895 232.726 80.4531C232.547 79.9168 232.243 79.4877 231.814 79.1659C231.385 78.8262 230.786 78.6564 230.018 78.6564C229.285 78.6564 228.686 78.8262 228.221 79.1659C227.774 79.5056 227.443 79.9436 227.229 80.4799C227.032 80.9984 226.916 81.5347 226.88 82.089C226.862 82.4108 226.853 82.7504 226.853 83.108C226.853 83.4656 226.862 83.8142 226.88 84.1539C226.898 84.6902 227.023 85.2087 227.255 85.7093C227.488 86.192 227.827 86.5942 228.274 86.916C228.721 87.2378 229.302 87.3987 230.018 87.3987ZM245.042 90.2682C243.969 90.2682 243.049 90.143 242.28 89.8927C241.529 89.6424 240.912 89.3296 240.43 88.9541C239.947 88.5787 239.589 88.2033 239.357 87.8278C239.124 87.4524 238.999 87.1395 238.981 86.8892C238.964 86.6926 239.017 86.5406 239.142 86.4333C239.285 86.3082 239.437 86.2456 239.598 86.2456H241.717C241.788 86.2456 241.851 86.2545 241.904 86.2724C241.958 86.2903 242.03 86.3439 242.119 86.4333C242.351 86.63 242.593 86.8356 242.843 87.0501C243.111 87.2647 243.424 87.4524 243.782 87.6133C244.139 87.7563 244.586 87.8278 245.123 87.8278C245.82 87.8278 246.401 87.6937 246.866 87.4256C247.348 87.1395 247.59 86.7373 247.59 86.2188C247.59 85.8433 247.482 85.5394 247.268 85.307C247.071 85.0746 246.696 84.869 246.142 84.6902C245.587 84.4936 244.801 84.288 243.782 84.0734C242.78 83.841 241.949 83.546 241.288 83.1885C240.626 82.8309 240.135 82.3839 239.813 81.8476C239.491 81.3113 239.33 80.6855 239.33 79.9704C239.33 79.2732 239.536 78.6117 239.947 77.9859C240.376 77.3423 241.002 76.8149 241.824 76.4037C242.664 75.9925 243.701 75.7869 244.935 75.7869C245.9 75.7869 246.74 75.9121 247.456 76.1624C248.171 76.3948 248.761 76.6898 249.226 77.0473C249.708 77.4049 250.075 77.7714 250.325 78.1468C250.575 78.5044 250.709 78.8173 250.727 79.0854C250.745 79.2821 250.692 79.443 250.566 79.5681C250.441 79.6754 250.298 79.7291 250.137 79.7291H248.153C248.063 79.7291 247.983 79.7112 247.911 79.6754C247.84 79.6397 247.768 79.595 247.697 79.5413C247.5 79.3625 247.286 79.1748 247.053 78.9782C246.821 78.7815 246.535 78.6117 246.195 78.4686C245.873 78.3077 245.444 78.2273 244.908 78.2273C244.229 78.2273 243.71 78.3793 243.353 78.6832C242.995 78.9692 242.816 79.3357 242.816 79.7827C242.816 80.0866 242.897 80.3548 243.058 80.5872C243.236 80.8017 243.585 81.0073 244.103 81.204C244.622 81.4006 245.409 81.6062 246.463 81.8208C247.661 82.0353 248.609 82.3571 249.306 82.7862C250.021 83.1974 250.522 83.6801 250.808 84.2343C251.112 84.7707 251.264 85.3696 251.264 86.0311C251.264 86.8356 251.022 87.5596 250.54 88.2033C250.075 88.8469 249.377 89.3564 248.448 89.7318C247.536 90.0894 246.401 90.2682 245.042 90.2682ZM254.756 84.7975C254.577 84.7975 254.425 84.7438 254.3 84.6366C254.175 84.5114 254.112 84.3505 254.112 84.1539V71.8716C254.112 71.6929 254.175 71.5409 254.3 71.4157C254.425 71.2906 254.577 71.228 254.756 71.228H256.928C257.125 71.228 257.277 71.2906 257.384 71.4157C257.509 71.5409 257.572 71.6929 257.572 71.8716V84.1539C257.572 84.3505 257.509 84.5114 257.384 84.6366C257.277 84.7438 257.125 84.7975 256.928 84.7975H254.756ZM254.595 90C254.398 90 254.237 89.9374 254.112 89.8123C254.005 89.6871 253.951 89.5352 253.951 89.3564V86.8624C253.951 86.6657 254.005 86.5048 254.112 86.3797C254.237 86.2545 254.398 86.192 254.595 86.192H257.089C257.286 86.192 257.447 86.2545 257.572 86.3797C257.697 86.5048 257.759 86.6657 257.759 86.8624V89.3564C257.759 89.5352 257.697 89.6871 257.572 89.8123C257.447 89.9374 257.286 90 257.089 90H254.595Z" fill="black" fill-opacity="0.2"/>
</g>
<defs>
<clipPath id="clip0_610_9669">
<rect width="425.45" height="400.93" fill="white"/>
</clipPath>
</defs>
</svg>
