<svg width="16" height="16" viewBox="0 0 16 16" fill="none" xmlns="http://www.w3.org/2000/svg">
<g id="octicon:link-16">
<g id="Vector">
<path d="M7.77518 3.27518L9.02518 2.02518C9.3502 1.70016 9.73606 1.44234 10.1607 1.26644C10.5854 1.09053 11.0405 1 11.5002 1C11.9598 1 12.415 1.09053 12.8396 1.26644C13.2643 1.44234 13.6502 1.70016 13.9752 2.02518C14.3002 2.3502 14.558 2.73606 14.7339 3.16072C14.9098 3.58538 15.0004 4.04053 15.0004 4.50018C15.0004 4.95983 14.9098 5.41498 14.7339 5.83964C14.558 6.2643 14.3002 6.65016 13.9752 6.97518L11.4752 9.47518C11.1502 9.80022 10.7643 10.0581 10.3397 10.234C9.91499 10.4099 9.45984 10.5004 9.00018 10.5004C8.54052 10.5004 8.08537 10.4099 7.6607 10.234C7.23604 10.0581 6.85019 9.80022 6.52518 9.47518C6.39254 9.33303 6.32028 9.14493 6.32363 8.95054C6.32699 8.75615 6.40571 8.57066 6.54318 8.43318C6.68066 8.29571 6.86615 8.21699 7.06054 8.21363C7.25493 8.21028 7.44303 8.28254 7.58518 8.41518C7.77092 8.60113 7.9915 8.74865 8.2343 8.8493C8.47709 8.94995 8.73735 9.00175 9.00018 9.00175C9.26301 9.00175 9.52326 8.94995 9.76606 8.8493C10.0089 8.74865 10.2294 8.60113 10.4152 8.41518L12.9152 5.91518C13.2722 5.53623 13.4676 5.0331 13.4598 4.51252C13.452 3.99194 13.2418 3.49485 12.8737 3.12671C12.5055 2.75856 12.0084 2.54831 11.4878 2.54056C10.9673 2.5328 10.4641 2.72816 10.0852 3.08518L8.83518 4.33518C8.69303 4.46782 8.50493 4.54008 8.31054 4.53672C8.11615 4.53337 7.93066 4.45465 7.79318 4.31718C7.65571 4.1797 7.57699 3.99421 7.57363 3.79982C7.57028 3.60542 7.64254 3.41732 7.77518 3.27518ZM3.08518 12.9152C3.27092 13.1011 3.4915 13.2486 3.7343 13.3493C3.97709 13.4499 4.23735 13.5018 4.50018 13.5018C4.76301 13.5018 5.02326 13.4499 5.26606 13.3493C5.50885 13.2486 5.72943 13.1011 5.91518 12.9152L7.16518 11.6652C7.30732 11.5325 7.49542 11.4603 7.68982 11.4636C7.88421 11.467 8.0697 11.5457 8.20718 11.6832C8.34465 11.8207 8.42337 12.0062 8.42672 12.2005C8.43008 12.3949 8.35782 12.583 8.22518 12.7252L6.97518 13.9752C6.65016 14.3002 6.2643 14.558 5.83964 14.7339C5.41498 14.9098 4.95983 15.0004 4.50018 15.0004C4.04053 15.0004 3.58538 14.9098 3.16072 14.7339C2.73606 14.558 2.3502 14.3002 2.02518 13.9752C1.70016 13.6502 1.44234 13.2643 1.26644 12.8396C1.09053 12.415 1 11.9598 1 11.5002C1 11.0405 1.09053 10.5854 1.26644 10.1607C1.44234 9.73606 1.70016 9.3502 2.02518 9.02518L4.52518 6.52518C4.85019 6.20014 5.23604 5.9423 5.6607 5.76638C6.08537 5.59047 6.54052 5.49993 7.00018 5.49993C7.45984 5.49993 7.91499 5.59047 8.33965 5.76638C8.76432 5.9423 9.15017 6.20014 9.47518 6.52518C9.60782 6.66732 9.68008 6.85542 9.67672 7.04982C9.67337 7.24421 9.59465 7.4297 9.45718 7.56718C9.3197 7.70465 9.13421 7.78337 8.93982 7.78672C8.74542 7.79008 8.55732 7.71782 8.41518 7.58518C8.22943 7.39923 8.00885 7.25171 7.76606 7.15106C7.52326 7.05041 7.26301 6.99861 7.00018 6.99861C6.73735 6.99861 6.47709 7.05041 6.2343 7.15106C5.9915 7.25171 5.77092 7.39923 5.58518 7.58518L3.08518 10.0852C2.89923 10.2709 2.75171 10.4915 2.65106 10.7343C2.55041 10.9771 2.49861 11.2373 2.49861 11.5002C2.49861 11.763 2.55041 12.0233 2.65106 12.2661C2.75171 12.5089 2.89923 12.7294 3.08518 12.9152Z" fill="#20335D"/>
<path d="M7.77518 3.27518L9.02518 2.02518C9.3502 1.70016 9.73606 1.44234 10.1607 1.26644C10.5854 1.09053 11.0405 1 11.5002 1C11.9598 1 12.415 1.09053 12.8396 1.26644C13.2643 1.44234 13.6502 1.70016 13.9752 2.02518C14.3002 2.3502 14.558 2.73606 14.7339 3.16072C14.9098 3.58538 15.0004 4.04053 15.0004 4.50018C15.0004 4.95983 14.9098 5.41498 14.7339 5.83964C14.558 6.2643 14.3002 6.65016 13.9752 6.97518L11.4752 9.47518C11.1502 9.80022 10.7643 10.0581 10.3397 10.234C9.91499 10.4099 9.45984 10.5004 9.00018 10.5004C8.54052 10.5004 8.08537 10.4099 7.6607 10.234C7.23604 10.0581 6.85019 9.80022 6.52518 9.47518C6.39254 9.33303 6.32028 9.14493 6.32363 8.95054C6.32699 8.75615 6.40571 8.57066 6.54318 8.43318C6.68066 8.29571 6.86615 8.21699 7.06054 8.21363C7.25493 8.21028 7.44303 8.28254 7.58518 8.41518C7.77092 8.60113 7.9915 8.74865 8.2343 8.8493C8.47709 8.94995 8.73735 9.00175 9.00018 9.00175C9.26301 9.00175 9.52326 8.94995 9.76606 8.8493C10.0089 8.74865 10.2294 8.60113 10.4152 8.41518L12.9152 5.91518C13.2722 5.53623 13.4676 5.0331 13.4598 4.51252C13.452 3.99194 13.2418 3.49485 12.8737 3.12671C12.5055 2.75856 12.0084 2.54831 11.4878 2.54056C10.9673 2.5328 10.4641 2.72816 10.0852 3.08518L8.83518 4.33518C8.69303 4.46782 8.50493 4.54008 8.31054 4.53672C8.11615 4.53337 7.93066 4.45465 7.79318 4.31718C7.65571 4.1797 7.57699 3.99421 7.57363 3.79982C7.57028 3.60542 7.64254 3.41732 7.77518 3.27518ZM3.08518 12.9152C3.27092 13.1011 3.4915 13.2486 3.7343 13.3493C3.97709 13.4499 4.23735 13.5018 4.50018 13.5018C4.76301 13.5018 5.02326 13.4499 5.26606 13.3493C5.50885 13.2486 5.72943 13.1011 5.91518 12.9152L7.16518 11.6652C7.30732 11.5325 7.49542 11.4603 7.68982 11.4636C7.88421 11.467 8.0697 11.5457 8.20718 11.6832C8.34465 11.8207 8.42337 12.0062 8.42672 12.2005C8.43008 12.3949 8.35782 12.583 8.22518 12.7252L6.97518 13.9752C6.65016 14.3002 6.2643 14.558 5.83964 14.7339C5.41498 14.9098 4.95983 15.0004 4.50018 15.0004C4.04053 15.0004 3.58538 14.9098 3.16072 14.7339C2.73606 14.558 2.3502 14.3002 2.02518 13.9752C1.70016 13.6502 1.44234 13.2643 1.26644 12.8396C1.09053 12.415 1 11.9598 1 11.5002C1 11.0405 1.09053 10.5854 1.26644 10.1607C1.44234 9.73606 1.70016 9.3502 2.02518 9.02518L4.52518 6.52518C4.85019 6.20014 5.23604 5.9423 5.6607 5.76638C6.08537 5.59047 6.54052 5.49993 7.00018 5.49993C7.45984 5.49993 7.91499 5.59047 8.33965 5.76638C8.76432 5.9423 9.15017 6.20014 9.47518 6.52518C9.60782 6.66732 9.68008 6.85542 9.67672 7.04982C9.67337 7.24421 9.59465 7.4297 9.45718 7.56718C9.3197 7.70465 9.13421 7.78337 8.93982 7.78672C8.74542 7.79008 8.55732 7.71782 8.41518 7.58518C8.22943 7.39923 8.00885 7.25171 7.76606 7.15106C7.52326 7.05041 7.26301 6.99861 7.00018 6.99861C6.73735 6.99861 6.47709 7.05041 6.2343 7.15106C5.9915 7.25171 5.77092 7.39923 5.58518 7.58518L3.08518 10.0852C2.89923 10.2709 2.75171 10.4915 2.65106 10.7343C2.55041 10.9771 2.49861 11.2373 2.49861 11.5002C2.49861 11.763 2.55041 12.0233 2.65106 12.2661C2.75171 12.5089 2.89923 12.7294 3.08518 12.9152Z" fill="black" fill-opacity="0.2"/>
</g>
</g>
</svg>
