<svg width="95" height="46" viewBox="0 0 95 46" fill="none" xmlns="http://www.w3.org/2000/svg">
<rect x="0.574219" width="93.9473" height="45.8938" rx="10" fill="white"/>
<mask id="mask0_601_6449" style="mask-type:luminance" maskUnits="userSpaceOnUse" x="8" y="15" width="80" height="16">
<path d="M88 15.4219H8V30.2512H88V15.4219Z" fill="white"/>
</mask>
<g mask="url(#mask0_601_6449)">
<path d="M20.8605 20.1064H21.1368C22.0707 20.1064 22.8293 20.8645 22.8293 21.7979V23.8751C22.8293 24.8085 22.0707 25.5666 21.1368 25.5666H18.9181C18.3919 25.5666 18.142 25.8339 18.142 26.3422V28.5596C18.142 29.493 17.3834 30.2512 16.4494 30.2512H14.3711C13.4371 30.2512 12.6786 29.493 12.6786 28.5596C12.6786 28.5596 12.6786 26.8988 12.6786 26.3422C12.6786 25.7901 12.4067 25.5666 11.8981 25.5666H9.69252C8.75856 25.5622 8 24.8041 8 23.8707V21.7935C8 20.8602 8.75856 20.1021 9.69252 20.1021H11.9068C12.3979 20.1021 12.6873 19.8259 12.6873 19.3133V17.1134C12.6873 16.18 13.4459 15.4219 14.3798 15.4219H16.4582C17.3922 15.4219 18.1507 16.18 18.1507 17.1134V19.3176C18.1507 19.8566 18.348 20.1064 18.9137 20.1064H19.3039L18.1639 21.6621C17.2913 21.592 16.5941 20.8602 16.5941 19.9706V17.7619C16.5941 17.223 16.3881 16.9775 15.8093 16.9775H15.02C14.5289 16.9775 14.2439 17.2405 14.2439 17.7619V19.9706C14.2439 20.904 13.4853 21.6621 12.5514 21.6621H10.3415C9.77144 21.6621 9.55659 22.0346 9.55659 22.4509V23.2309C9.55659 23.6998 9.8416 24.0109 10.3327 24.0109H12.5514C13.4853 24.0109 14.2439 24.769 14.2439 25.7025V27.9154C14.2439 28.415 14.4938 28.6955 15.0113 28.6955H15.8049C16.296 28.6955 16.5897 28.3975 16.5897 27.9067V25.7025C16.5897 24.769 17.3483 24.0109 18.2823 24.0109H20.501C21.0359 24.0109 21.2771 23.7393 21.2771 23.2221V22.4421C21.2771 21.9075 20.9964 21.6621 20.4834 21.6621H19.7205L20.8605 20.1064Z" fill="url(#paint0_linear_601_6449)"/>
<path d="M40.2918 18.5469L43.8241 27.1322H42.1929L41.3713 25.0961H37.4342L36.6246 27.1322H35.0684L38.5497 18.5469H40.2918ZM37.9859 23.6867H40.8076L39.3983 20.1662L37.9859 23.6867Z" fill="#8168F0"/>
<path d="M51.1441 19.9593H46.5713V27.1322H45.0391V18.5469H52.6794V27.1322H51.1471V19.9593H51.1441Z" fill="#8168F0"/>
<path d="M61.2343 19.9563H58.3407V27.1292H56.8085V19.9563H53.9629V18.5469H61.2343V19.9563Z" fill="#8168F0"/>
<path d="M68.0046 23.4168H64.0556V25.7228H68.5921V27.1322H62.5234V18.5469H68.4575V19.9563H64.0556V22.0044H68.0046V23.4168Z" fill="#8168F0"/>
<path d="M33.7743 23.4168H29.8252V25.7228H34.362V27.1322H28.293V18.5469H34.2271V19.9563H29.8252V22.0044H33.7743V23.4168Z" fill="#8168F0"/>
<path d="M71.9502 27.1322H70.418V18.5469H71.9502V22.1513H73.237L75.9954 18.5469H77.8607L74.5861 22.6311L78.3881 27.1322H76.427L73.3115 23.4168H71.9502V27.1322Z" fill="#8168F0"/>
<path d="M83.7645 18.5469L87.2967 27.1322H85.6655L84.8438 25.0961H80.9071L80.0972 27.1322H78.541L82.0226 18.5469H83.7645ZM81.4585 23.6867H84.2802L82.871 20.1662L81.4585 23.6867Z" fill="#8168F0"/>
</g>
<defs>
<linearGradient id="paint0_linear_601_6449" x1="12.1658" y1="28.458" x2="18.8604" y2="16.8557" gradientUnits="userSpaceOnUse">
<stop stop-color="#8168F0"/>
<stop offset="0.137" stop-color="#7F6DF0"/>
<stop offset="0.2924" stop-color="#787AF0"/>
<stop offset="0.4568" stop-color="#6C91F1"/>
<stop offset="0.6273" stop-color="#5DB1F1"/>
<stop offset="0.8012" stop-color="#48D9F2"/>
<stop offset="0.8195" stop-color="#46DEF2"/>
<stop offset="1" stop-color="#50E3C2"/>
</linearGradient>
</defs>
</svg>
