<svg width="25" height="25" viewBox="0 0 25 25" fill="none" xmlns="http://www.w3.org/2000/svg">
<path d="M0 12C0 6.34315 0 3.51472 1.75736 1.75736C3.51472 0 6.34315 0 12 0H13C18.6569 0 21.4853 0 23.2426 1.75736C25 3.51472 25 6.34315 25 12V13C25 18.6569 25 21.4853 23.2426 23.2426C21.4853 25 18.6569 25 13 25H12C6.34315 25 3.51472 25 1.75736 23.2426C0 21.4853 0 18.6569 0 13V12Z" fill="#0077FF"/>
<path d="M13.3021 18.0098C7.60414 18.0098 4.35417 14.1035 4.21875 7.60352H7.07291C7.16666 12.3743 9.27078 14.3952 10.9374 14.8118V7.60352H13.625V11.7181C15.2709 11.541 16.9998 9.66602 17.5832 7.60352H20.2707C19.8228 10.1452 17.9478 12.0202 16.6145 12.791C17.9478 13.416 20.0833 15.0514 20.8958 18.0098H17.9374C17.302 16.0306 15.7188 14.4993 13.625 14.291V18.0098H13.3021Z" fill="white"/>
</svg>
