<svg width="16" height="16" viewBox="0 0 16 16" fill="none" xmlns="http://www.w3.org/2000/svg">
<path d="M16 8C15.9996 5.8784 15.1566 3.84381 13.6564 2.34361C12.1562 0.843415 10.1216 0.000424193 8 0V1.6C9.26568 1.60029 10.5029 1.97571 11.5553 2.67883C12.6077 3.38195 13.4281 4.38122 13.9128 5.5504C14.2345 6.32701 14.4 7.15939 14.4 8H16ZM0 6.4V2.4C0 2.18783 0.0842854 1.98434 0.234315 1.83431C0.384344 1.68429 0.587827 1.6 0.8 1.6H4.8C5.01217 1.6 5.21566 1.68429 5.36569 1.83431C5.51571 1.98434 5.6 2.18783 5.6 2.4V5.6C5.6 5.81217 5.51571 6.01566 5.36569 6.16569C5.21566 6.31571 5.01217 6.4 4.8 6.4H3.2C3.2 8.09739 3.87428 9.72525 5.07452 10.9255C6.27475 12.1257 7.90261 12.8 9.6 12.8V11.2C9.6 10.9878 9.68429 10.7843 9.83431 10.6343C9.98434 10.4843 10.1878 10.4 10.4 10.4H13.6C13.8122 10.4 14.0157 10.4843 14.1657 10.6343C14.3157 10.7843 14.4 10.9878 14.4 11.2V15.2C14.4 15.4122 14.3157 15.6157 14.1657 15.7657C14.0157 15.9157 13.8122 16 13.6 16H9.6C4.2984 16 0 11.7016 0 6.4Z" fill="#9CADD2"/>
<path d="M12.6192 6.08667C12.8707 6.69319 13.0001 7.34338 13 8H11.5C11.5001 7.54034 11.4097 7.08517 11.2338 6.66048C11.0579 6.23579 10.8001 5.84991 10.4751 5.52488C10.1501 5.19986 9.76421 4.94205 9.33952 4.7662C8.91483 4.59035 8.45966 4.49989 8 4.5V3C8.98888 3.00005 9.95553 3.29333 10.7777 3.84275C11.5999 4.39217 12.2408 5.17306 12.6192 6.08667Z" fill="#9CADD2"/>
</svg>
