<svg width="22" height="24" viewBox="0 0 22 24" fill="none" xmlns="http://www.w3.org/2000/svg">
<path fill-rule="evenodd" clip-rule="evenodd" d="M10.0064 3C8.72963 3.00011 7.47135 3.30554 6.3366 3.89082C5.20184 4.4761 4.2235 5.32425 3.48321 6.36452C2.74293 7.40478 2.26215 8.60698 2.081 9.87083C1.89985 11.1347 2.02358 12.4235 2.44186 13.6298C2.86014 14.8361 3.56085 15.9249 4.48552 16.8054C5.41019 17.6858 6.53201 18.3324 7.75739 18.6911C8.98278 19.0498 10.2762 19.1103 11.5297 18.8676C12.7832 18.6248 13.9605 18.0858 14.9633 17.2955L18.4036 20.7356C18.5812 20.9072 18.8192 21.0021 19.0662 21C19.3132 20.9978 19.5494 20.8988 19.7241 20.7241C19.8987 20.5495 19.9978 20.3132 20 20.0662C20.0021 19.8192 19.9072 19.5813 19.7356 19.4036L16.2953 15.9635C17.226 14.7829 17.8055 13.364 17.9675 11.8694C18.1295 10.3748 17.8674 8.86478 17.2112 7.51217C16.555 6.15955 15.5312 5.019 14.2571 4.22102C12.9829 3.42305 11.5099 2.9999 10.0064 3ZM3.88335 11.0068C3.88335 9.38294 4.52846 7.82556 5.67676 6.6773C6.82506 5.52904 8.3825 4.88396 10.0064 4.88396C11.6304 4.88396 13.1878 5.52904 14.3361 6.6773C15.4844 7.82556 16.1295 9.38294 16.1295 11.0068C16.1295 12.6307 15.4844 14.1881 14.3361 15.3363C13.1878 16.4846 11.6304 17.1297 10.0064 17.1297C8.3825 17.1297 6.82506 16.4846 5.67676 15.3363C4.52846 14.1881 3.88335 12.6307 3.88335 11.0068Z" fill="#1A1A1A"/>
</svg>
