<svg width="24" height="24" viewBox="0 0 24 24" fill="none" xmlns="http://www.w3.org/2000/svg">
<rect width="24" height="24" fill="#F5F5F5"/>
<g id="pop up - &#208;&#190;&#209;&#129;&#209;&#130;&#208;&#176;&#208;&#178;&#208;&#184;&#209;&#130;&#209;&#140; &#208;&#190;&#209;&#130;&#208;&#183;&#209;&#139;&#208;&#178;">
<g clip-path="url(#clip0_0_1)">
<rect x="-901" y="-782" width="1440" height="1345" rx="10" fill="#F5F7F8"/>
<g id="&#208;&#177;&#208;&#181;&#208;&#179;&#209;&#131;&#209;&#137;&#208;&#176;&#209;&#143; &#209;&#129;&#209;&#130;&#209;&#128;&#208;&#190;&#208;&#186;&#208;&#176;">
<rect id="Rectangle 6" x="-901" y="-20" width="1440" height="60" fill="white"/>
<g id="Frame 3">
<rect width="2584" height="27" transform="translate(-879 -3)" fill="white"/>
<g id="Group 11">
<path id="&#208;&#164;&#208;&#176;&#209;&#128;&#208;&#188;&#208;&#176;&#209;&#134;&#208;&#181;&#208;&#178;&#209;&#130;&#208;&#184;&#209;&#135;&#208;&#181;&#209;&#129;&#208;&#186;&#208;&#176;&#209;&#143; &#208;&#187;&#208;&#184;&#209;&#134;&#208;&#181;&#208;&#189;&#208;&#183;&#208;&#184;&#209;&#143;" d="M-96.944 7.796C-95.9733 8.564 -95.488 9.59867 -95.488 10.9C-95.488 12.2013 -95.9733 13.236 -96.944 14.004C-97.904 14.772 -99.1893 15.2093 -100.8 15.316V16.58H-102.256V15.316C-103.856 15.2093 -105.141 14.772 -106.112 14.004C-107.072 13.236 -107.552 12.2013 -107.552 10.9C-107.552 9.59867 -107.072 8.564 -106.112 7.796C-105.141 7.028 -103.856 6.59067 -102.256 6.484V5.22H-100.8V6.484C-99.1893 6.59067 -97.904 7.028 -96.944 7.796ZM-100.8 13.956C-99.5947 13.8707 -98.656 13.5773 -97.984 13.076C-97.312 12.564 -96.976 11.8387 -96.976 10.9C-96.976 9.96133 -97.312 9.24133 -97.984 8.74C-98.656 8.228 -99.5947 7.92933 -100.8 7.844V13.956ZM-106.08 10.9C-106.08 11.828 -105.744 12.548 -105.072 13.06C-104.4 13.5613 -103.461 13.8547 -102.256 13.94V7.844C-103.461 7.92933 -104.4 8.228 -105.072 8.74C-105.744 9.24133 -106.08 9.96133 -106.08 10.9ZM-87.3825 8.5H-85.9905V16.5H-87.3825V15.124C-88.0758 16.18 -89.0838 16.708 -90.4065 16.708C-91.5265 16.708 -92.4812 16.3027 -93.2705 15.492C-94.0598 14.6707 -94.4545 13.6733 -94.4545 12.5C-94.4545 11.3267 -94.0598 10.3347 -93.2705 9.524C-92.4812 8.70267 -91.5265 8.292 -90.4065 8.292C-89.0838 8.292 -88.0758 8.82 -87.3825 9.876V8.5ZM-90.2305 15.364C-89.4198 15.364 -88.7425 15.092 -88.1985 14.548C-87.6545 13.9933 -87.3825 13.3107 -87.3825 12.5C-87.3825 11.6893 -87.6545 11.012 -88.1985 10.468C-88.7425 9.91333 -89.4198 9.636 -90.2305 9.636C-91.0305 9.636 -91.7025 9.91333 -92.2465 10.468C-92.7905 11.012 -93.0625 11.6893 -93.0625 12.5C-93.0625 13.3107 -92.7905 13.9933 -92.2465 14.548C-91.7025 15.092 -91.0305 15.364 -90.2305 15.364ZM-79.4655 8.292C-78.3455 8.292 -77.3908 8.70267 -76.6015 9.524C-75.8122 10.3347 -75.4175 11.3267 -75.4175 12.5C-75.4175 13.6733 -75.8122 14.6707 -76.6015 15.492C-77.3908 16.3027 -78.3455 16.708 -79.4655 16.708C-80.7882 16.708 -81.7962 16.18 -82.4895 15.124V19.7H-83.8815V8.5H-82.4895V9.876C-81.7962 8.82 -80.7882 8.292 -79.4655 8.292ZM-79.6415 15.364C-78.8415 15.364 -78.1695 15.092 -77.6255 14.548C-77.0815 13.9933 -76.8095 13.3107 -76.8095 12.5C-76.8095 11.6893 -77.0815 11.012 -77.6255 10.468C-78.1695 9.91333 -78.8415 9.636 -79.6415 9.636C-80.4522 9.636 -81.1295 9.91333 -81.6735 10.468C-82.2175 11.012 -82.4895 11.6893 -82.4895 12.5C-82.4895 13.3107 -82.2175 13.9933 -81.6735 14.548C-81.1295 15.092 -80.4522 15.364 -79.6415 15.364ZM-65.7565 8.5V16.5H-67.1165V10.692L-69.6605 14.788H-69.8365L-72.3805 10.692V16.5H-73.7565V8.5H-72.2685L-69.7565 12.548L-67.2445 8.5H-65.7565ZM-57.0075 8.5H-55.6155V16.5H-57.0075V15.124C-57.7008 16.18 -58.7088 16.708 -60.0315 16.708C-61.1515 16.708 -62.1062 16.3027 -62.8955 15.492C-63.6848 14.6707 -64.0795 13.6733 -64.0795 12.5C-64.0795 11.3267 -63.6848 10.3347 -62.8955 9.524C-62.1062 8.70267 -61.1515 8.292 -60.0315 8.292C-58.7088 8.292 -57.7008 8.82 -57.0075 9.876V8.5ZM-59.8555 15.364C-59.0448 15.364 -58.3675 15.092 -57.8235 14.548C-57.2795 13.9933 -57.0075 13.3107 -57.0075 12.5C-57.0075 11.6893 -57.2795 11.012 -57.8235 10.468C-58.3675 9.91333 -59.0448 9.636 -59.8555 9.636C-60.6555 9.636 -61.3275 9.91333 -61.8715 10.468C-62.4155 11.012 -62.6875 11.6893 -62.6875 12.5C-62.6875 13.3107 -62.4155 13.9933 -61.8715 14.548C-61.3275 15.092 -60.6555 15.364 -59.8555 15.364ZM-46.7865 15.172H-45.4745V18.644H-46.8505V16.5H-53.5065V8.5H-52.1145V15.172H-48.1785V8.5H-46.7865V15.172ZM-43.3274 13.14C-43.1887 13.8547 -42.8634 14.4093 -42.3514 14.804C-41.8287 15.1987 -41.1887 15.396 -40.4314 15.396C-39.3754 15.396 -38.6074 15.0067 -38.1274 14.228L-36.9434 14.9C-37.722 16.1053 -38.8954 16.708 -40.4634 16.708C-41.7327 16.708 -42.7674 16.3133 -43.5674 15.524C-44.3567 14.724 -44.7514 13.716 -44.7514 12.5C-44.7514 11.2947 -44.362 10.292 -43.5834 9.492C-42.8047 8.692 -41.7967 8.292 -40.5594 8.292C-39.386 8.292 -38.4314 8.708 -37.6954 9.54C-36.9487 10.3613 -36.5754 11.3533 -36.5754 12.516C-36.5754 12.7187 -36.5914 12.9267 -36.6234 13.14H-43.3274ZM-40.5594 9.604C-41.306 9.604 -41.9247 9.81733 -42.4154 10.244C-42.906 10.66 -43.21 11.22 -43.3274 11.924H-37.9834C-38.1007 11.1667 -38.3994 10.5907 -38.8794 10.196C-39.3594 9.80133 -39.9194 9.604 -40.5594 9.604ZM-29.6472 12.388C-28.8259 12.7293 -28.4152 13.348 -28.4152 14.244C-28.4152 14.9053 -28.6392 15.4493 -29.0872 15.876C-29.5246 16.292 -30.1539 16.5 -30.9752 16.5H-34.9753V8.5H-31.2952C-30.4952 8.5 -29.8766 8.70267 -29.4392 9.108C-29.0019 9.50267 -28.7832 10.0253 -28.7832 10.676C-28.7832 11.444 -29.0712 12.0147 -29.6472 12.388ZM-31.3592 9.748H-33.6152V11.844H-31.3592C-30.5486 11.844 -30.1432 11.4867 -30.1432 10.772C-30.1432 10.0893 -30.5486 9.748 -31.3592 9.748ZM-31.0552 15.236C-30.6499 15.236 -30.3406 15.14 -30.1272 14.948C-29.9032 14.756 -29.7912 14.484 -29.7912 14.132C-29.7912 13.8013 -29.9032 13.5453 -30.1272 13.364C-30.3406 13.172 -30.6499 13.076 -31.0552 13.076H-33.6152V15.236H-31.0552ZM-21.242 8.5V9.844H-23.962V16.5H-25.354V9.844H-28.09V8.5H-21.242ZM-14.2141 8.5H-13.0941V16.5H-14.4701V10.884L-18.9021 16.5H-20.0221V8.5H-18.6461V14.116L-14.2141 8.5ZM-5.93525 8.5H-4.54325V16.5H-5.93525V13.62C-6.57525 13.8973 -7.29525 14.036 -8.09525 14.036C-9.11925 14.036 -9.91392 13.796 -10.4792 13.316C-11.0339 12.8253 -11.3112 12.1053 -11.3112 11.156V8.5H-9.91925V11.076C-9.91925 11.6733 -9.75925 12.1 -9.43925 12.356C-9.10858 12.612 -8.62858 12.74 -7.99925 12.74C-7.24192 12.74 -6.55392 12.6013 -5.93525 12.324V8.5ZM-1.45237 13.14C-1.31371 13.8547 -0.988375 14.4093 -0.476375 14.804C0.0462919 15.1987 0.686292 15.396 1.44363 15.396C2.49963 15.396 3.26763 15.0067 3.74763 14.228L4.93163 14.9C4.15296 16.1053 2.97963 16.708 1.41163 16.708C0.142292 16.708 -0.892375 16.3133 -1.69237 15.524C-2.48171 14.724 -2.87637 13.716 -2.87637 12.5C-2.87637 11.2947 -2.48704 10.292 -1.70837 9.492C-0.929708 8.692 0.0782919 8.292 1.31563 8.292C2.48896 8.292 3.44363 8.708 4.17963 9.54C4.92629 10.3613 5.29963 11.3533 5.29963 12.516C5.29963 12.7187 5.28363 12.9267 5.25163 13.14H-1.45237ZM1.31563 9.604C0.568958 9.604 -0.0497082 9.81733 -0.540375 10.244C-1.03104 10.66 -1.33504 11.22 -1.45237 11.924H3.89163C3.77429 11.1667 3.47563 10.5907 2.99563 10.196C2.51563 9.80133 1.95563 9.604 1.31563 9.604ZM10.6441 16.708C9.43879 16.708 8.43613 16.308 7.63613 15.508C6.83613 14.6973 6.43613 13.6947 6.43613 12.5C6.43613 11.3053 6.83613 10.308 7.63613 9.508C8.43613 8.69733 9.43879 8.292 10.6441 8.292C11.4335 8.292 12.1428 8.484 12.7721 8.868C13.4015 9.24133 13.8708 9.748 14.1801 10.388L13.0121 11.06C12.8095 10.6333 12.4948 10.292 12.0681 10.036C11.6521 9.78 11.1775 9.652 10.6441 9.652C9.84413 9.652 9.17213 9.924 8.62813 10.468C8.09479 11.012 7.82812 11.6893 7.82812 12.5C7.82812 13.3 8.09479 13.972 8.62813 14.516C9.17213 15.06 9.84413 15.332 10.6441 15.332C11.1775 15.332 11.6575 15.2093 12.0841 14.964C12.5108 14.708 12.8361 14.3667 13.0601 13.94L14.2441 14.628C13.9028 15.2573 13.4121 15.764 12.7721 16.148C12.1321 16.5213 11.4228 16.708 10.6441 16.708ZM22.4021 16.5H20.6741L17.0261 12.708V16.5H15.6341V8.5H17.0261V12.036L20.4821 8.5H22.2741L18.4501 12.372L22.4021 16.5ZM29.5863 8.5H30.9783V16.5H29.5863V15.124C28.8929 16.18 27.8849 16.708 26.5623 16.708C25.4423 16.708 24.4876 16.3027 23.6983 15.492C22.9089 14.6707 22.5143 13.6733 22.5143 12.5C22.5143 11.3267 22.9089 10.3347 23.6983 9.524C24.4876 8.70267 25.4423 8.292 26.5623 8.292C27.8849 8.292 28.8929 8.82 29.5863 9.876V8.5ZM26.7383 15.364C27.5489 15.364 28.2263 15.092 28.7703 14.548C29.3143 13.9933 29.5863 13.3107 29.5863 12.5C29.5863 11.6893 29.3143 11.012 28.7703 10.468C28.2263 9.91333 27.5489 9.636 26.7383 9.636C25.9383 9.636 25.2663 9.91333 24.7223 10.468C24.1783 11.012 23.9062 11.6893 23.9062 12.5C23.9062 13.3107 24.1783 13.9933 24.7223 14.548C25.2663 15.092 25.9383 15.364 26.7383 15.364ZM39.0713 8.5V16.5H37.6953V13.62H36.5273L34.2873 16.5H32.5913L34.9273 13.54C34.3299 13.3907 33.8446 13.092 33.4713 12.644C33.0979 12.196 32.9113 11.6733 32.9113 11.076C32.9113 10.34 33.1726 9.72667 33.6953 9.236C34.2179 8.74533 34.8739 8.5 35.6633 8.5H39.0713ZM35.7113 12.372H37.6953V9.796H35.7113C35.3166 9.796 34.9806 9.91333 34.7033 10.148C34.4259 10.3827 34.2873 10.6973 34.2873 11.092C34.2873 11.476 34.4259 11.7853 34.7033 12.02C34.9806 12.2547 35.3166 12.372 35.7113 12.372ZM51.853 8.5V16.5H50.461V9.844H47.309V13.108C47.309 14.42 47.0423 15.3373 46.509 15.86C45.9863 16.372 45.245 16.5853 44.285 16.5V15.188C44.829 15.2627 45.2343 15.1453 45.501 14.836C45.7783 14.516 45.917 13.9293 45.917 13.076V8.5H51.853ZM59.7703 8.5H60.8903V16.5H59.5143V10.884L55.0823 16.5H53.9622V8.5H55.3383V14.116L59.7703 8.5ZM69.7291 15.172H71.0411V18.644H69.6651V16.5H63.0091V8.5H64.4011V15.172H68.3371V8.5H69.7291V15.172ZM73.1883 13.14C73.3269 13.8547 73.6523 14.4093 74.1643 14.804C74.6869 15.1987 75.3269 15.396 76.0843 15.396C77.1403 15.396 77.9083 15.0067 78.3883 14.228L79.5723 14.9C78.7936 16.1053 77.6203 16.708 76.0523 16.708C74.7829 16.708 73.7483 16.3133 72.9483 15.524C72.1589 14.724 71.7643 13.716 71.7643 12.5C71.7643 11.2947 72.1536 10.292 72.9323 9.492C73.7109 8.692 74.7189 8.292 75.9563 8.292C77.1296 8.292 78.0843 8.708 78.8203 9.54C79.5669 10.3613 79.9403 11.3533 79.9403 12.516C79.9403 12.7187 79.9243 12.9267 79.8923 13.14H73.1883ZM75.9563 9.604C75.2096 9.604 74.5909 9.81733 74.1003 10.244C73.6096 10.66 73.3056 11.22 73.1883 11.924H78.5323C78.4149 11.1667 78.1163 10.5907 77.6363 10.196C77.1563 9.80133 76.5963 9.604 75.9563 9.604ZM87.0764 8.5H88.4684V16.5H87.0764V13.156H82.9324V16.5H81.5404V8.5H82.9324V11.828H87.0764V8.5ZM94.9073 12.404C95.7926 12.7667 96.2353 13.4013 96.2353 14.308C96.2353 14.98 95.9686 15.5507 95.4353 16.02C94.9019 16.4787 94.1446 16.708 93.1633 16.708C91.5633 16.708 90.4913 16.068 89.9473 14.788L91.1153 14.1C91.4246 14.9747 92.1126 15.412 93.1793 15.412C93.7126 15.412 94.1233 15.3 94.4113 15.076C94.7099 14.8413 94.8593 14.5427 94.8593 14.18C94.8593 13.86 94.7366 13.5987 94.4913 13.396C94.2566 13.1933 93.9366 13.092 93.5312 13.092H92.3633V11.828H93.2273C93.6326 11.828 93.9473 11.732 94.1713 11.54C94.3953 11.3373 94.5073 11.0653 94.5073 10.724C94.5073 10.3827 94.3739 10.1053 94.1073 9.892C93.8513 9.67867 93.4939 9.572 93.0353 9.572C92.1393 9.572 91.5313 9.95067 91.2113 10.708L90.0753 10.052C90.6406 8.87867 91.6273 8.292 93.0353 8.292C93.9099 8.292 94.5979 8.516 95.0993 8.964C95.6113 9.412 95.8673 9.96133 95.8673 10.612C95.8673 11.4227 95.5473 12.02 94.9073 12.404ZM103.552 8.5H104.672V16.5H103.296V10.884L98.8635 16.5H97.7435V8.5H99.1195V14.116L103.552 8.5ZM112.774 8.5V16.5H111.398V13.62H110.23L107.99 16.5H106.294L108.63 13.54C108.033 13.3907 107.548 13.092 107.174 12.644C106.801 12.196 106.614 11.6733 106.614 11.076C106.614 10.34 106.876 9.72667 107.398 9.236C107.921 8.74533 108.577 8.5 109.366 8.5H112.774ZM109.414 12.372H111.398V9.796H109.414C109.02 9.796 108.684 9.91333 108.406 10.148C108.129 10.3827 107.99 10.6973 107.99 11.092C107.99 11.476 108.129 11.7853 108.406 12.02C108.684 12.2547 109.02 12.372 109.414 12.372Z" fill="#1A1A1A"/>
</g>
</g>
</g>
<rect id="Rectangle 93" x="-901" y="-782" width="1440" height="1346" fill="black" fill-opacity="0.6"/>
<g id="pop up - &#208;&#190;&#209;&#129;&#209;&#130;&#208;&#176;&#208;&#178;&#208;&#184;&#209;&#130;&#209;&#140; &#208;&#190;&#209;&#130;&#208;&#183;&#209;&#139;&#208;&#178;_2" filter="url(#filter0_d_0_1)">
<rect x="-476" y="-682" width="590" height="1166" rx="44" fill="white"/>
<g id="Group 163">
<g id="input">
<g id="Frame 83">
<rect x="-406" y="-15" width="450" height="55" rx="27.5" fill="#F5F7F8"/>
<g id="iconamoon:arrow-up-2">
<path id="Vector" d="M7 10L12 15L17 10" stroke="black" stroke-width="2" stroke-linecap="round" stroke-linejoin="round"/>
</g>
</g>
</g>
</g>
</g>
</g>
</g>
<defs>
<filter id="filter0_d_0_1" x="-526" y="-722" width="690" height="1266" filterUnits="userSpaceOnUse" color-interpolation-filters="sRGB">
<feFlood flood-opacity="0" result="BackgroundImageFix"/>
<feColorMatrix in="SourceAlpha" type="matrix" values="0 0 0 0 0 0 0 0 0 0 0 0 0 0 0 0 0 0 127 0" result="hardAlpha"/>
<feOffset dy="10"/>
<feGaussianBlur stdDeviation="25"/>
<feComposite in2="hardAlpha" operator="out"/>
<feColorMatrix type="matrix" values="0 0 0 0 0 0 0 0 0 0 0 0 0 0 0 0 0 0 0.2 0"/>
<feBlend mode="normal" in2="BackgroundImageFix" result="effect1_dropShadow_0_1"/>
<feBlend mode="normal" in="SourceGraphic" in2="effect1_dropShadow_0_1" result="shape"/>
</filter>
<clipPath id="clip0_0_1">
<rect x="-901" y="-782" width="1440" height="1345" rx="10" fill="white"/>
</clipPath>
</defs>
</svg>
