<svg width="28" height="27" viewBox="0 0 28 27" fill="none" xmlns="http://www.w3.org/2000/svg">
<path d="M27.4984 13.2448C27.5005 13.281 27.5005 13.3173 27.4984 13.3534C27.4055 16.7694 25.9711 20.0114 23.5057 22.3779C21.0403 24.7445 17.7421 26.0453 14.3248 25.9988C10.9075 25.9523 7.64594 24.5624 5.2458 22.1297C2.84566 19.697 1.5 16.4172 1.5 13C1.5 9.5828 2.84566 6.30301 5.2458 3.87031C7.64594 1.43761 10.9075 0.0476578 14.3248 0.00120283C17.7421 -0.0452521 21.0403 1.25553 23.5057 3.62208C25.9711 5.98864 27.4055 9.23064 27.4984 12.6466C27.492 12.8446 27.4984 13.0447 27.4984 13.2448Z" fill="url(#paint0_radial_591_3142)"/>
<path d="M26.4984 13.1412C26.5005 13.1758 26.5005 13.2105 26.4984 13.2451C26.4801 15.4983 25.8636 17.7071 24.7105 19.6504C23.5574 21.5936 21.9083 23.203 19.9284 24.3174C17.9485 25.4318 15.7074 26.0119 13.4294 25.9998C11.1515 25.9877 8.91673 25.3837 6.94909 24.2483C4.98145 23.1129 3.34999 21.486 2.21815 19.5306C1.0863 17.5751 0.493818 15.3598 0.500049 13.1066C0.506279 10.8534 1.111 8.64132 2.25365 6.69205C3.39629 4.74278 5.03673 3.12473 7.01062 2C5.81837 4.53987 5.53214 7.49932 6.41964 10.1655C7.98459 14.8501 13.0357 18.1599 18.0147 17.7403C21.4494 17.4511 24.604 15.4102 26.4902 12.5689C26.4922 12.7583 26.4984 12.9498 26.4984 13.1412Z" fill="url(#paint1_radial_591_3142)"/>
<path opacity="0.14" d="M25.5 14C25.4787 16.7699 24.6091 19.4616 23.0161 21.6886C21.4232 23.9156 19.1888 25.5633 16.6338 26.3952C14.0788 27.227 11.3346 27.2002 8.79524 26.3186C6.25589 25.437 4.05199 23.7459 2.5 21.4882C6.91536 23.3209 12.0171 23.4371 16.4686 21.6584C20.1779 20.1424 23.3358 17.4646 25.5 14Z" fill="white"/>
<path d="M22.9499 7.11765C23.6549 5.3178 21.7252 2.87901 18.6397 1.67045C15.5543 0.461892 12.4815 0.941229 11.7765 2.74108C11.0715 4.54093 13.0013 6.97973 16.0867 8.18828C19.1722 9.39684 22.2449 8.9175 22.9499 7.11765Z" fill="url(#paint2_linear_591_3142)"/>
<path d="M5.29429 15.051C4.98532 15.051 4.70611 14.9844 4.45667 14.8512C4.21006 14.718 4.01589 14.5351 3.87416 14.3027C3.73527 14.0674 3.66582 13.8038 3.66582 13.5118C3.66582 13.2199 3.73527 12.9577 3.87416 12.7252C4.01589 12.49 4.21006 12.3057 4.45667 12.1725C4.70611 12.0393 4.98532 11.9727 5.29429 11.9727C5.60326 11.9727 5.88105 12.0393 6.12766 12.1725C6.37426 12.3057 6.56843 12.49 6.71016 12.7252C6.85189 12.9577 6.92276 13.2199 6.92276 13.5118C6.92276 13.8038 6.85189 14.0674 6.71016 14.3027C6.56843 14.5351 6.37426 14.718 6.12766 14.8512C5.88105 14.9844 5.60326 15.051 5.29429 15.051ZM5.29429 14.4643C5.47003 14.4643 5.62877 14.4246 5.7705 14.3452C5.91223 14.263 6.02278 14.1496 6.10214 14.0051C6.18435 13.8605 6.22545 13.6961 6.22545 13.5118C6.22545 13.3276 6.18435 13.1632 6.10214 13.0186C6.02278 12.8741 5.91223 12.7621 5.7705 12.6827C5.62877 12.6005 5.47003 12.5594 5.29429 12.5594C5.11855 12.5594 4.95981 12.6005 4.81808 12.6827C4.67635 12.7621 4.56438 12.8741 4.48218 13.0186C4.40281 13.1632 4.36313 13.3276 4.36313 13.5118C4.36313 13.6961 4.40281 13.8605 4.48218 14.0051C4.56438 14.1496 4.67635 14.263 4.81808 14.3452C4.95981 14.4246 5.11855 14.4643 5.29429 14.4643ZM10.1489 15L10.1446 13.2142L9.26872 14.6854H8.95834L8.0867 13.2525V15H7.44042V12.0237H8.01017L9.12416 13.8733L10.2211 12.0237H10.7866L10.7951 15H10.1489ZM13.8058 14.4473V15H11.5013V12.0237H13.7505V12.5764H12.1858V13.2227H13.5677V13.7585H12.1858V14.4473H13.8058ZM16.3567 13.4651H16.986V14.6726C16.8244 14.7945 16.6373 14.888 16.4247 14.9532C16.2121 15.0184 15.9981 15.051 15.7827 15.051C15.4737 15.051 15.1959 14.9858 14.9493 14.8554C14.7027 14.7222 14.5085 14.5394 14.3668 14.3069C14.2279 14.0717 14.1585 13.8066 14.1585 13.5118C14.1585 13.217 14.2279 12.9534 14.3668 12.721C14.5085 12.4857 14.7041 12.3029 14.9536 12.1725C15.203 12.0393 15.4836 11.9727 15.7954 11.9727C16.0562 11.9727 16.2929 12.0166 16.5055 12.1045C16.7181 12.1923 16.8967 12.3199 17.0412 12.4871L16.599 12.8953C16.3865 12.6714 16.1299 12.5594 15.8295 12.5594C15.6395 12.5594 15.4709 12.5991 15.3235 12.6785C15.1761 12.7578 15.0613 12.8698 14.9791 13.0144C14.8969 13.1589 14.8558 13.3248 14.8558 13.5118C14.8558 13.6961 14.8969 13.8605 14.9791 14.0051C15.0613 14.1496 15.1747 14.263 15.3192 14.3452C15.4666 14.4246 15.6339 14.4643 15.821 14.4643C16.0194 14.4643 16.198 14.4217 16.3567 14.3367V13.4651ZM19.5859 14.3622H18.2041L17.9404 15H17.2346L18.5612 12.0237H19.2415L20.5724 15H19.8495L19.5859 14.3622ZM19.3691 13.8392L18.8971 12.6997L18.4252 13.8392H19.3691ZM23.2886 13.2355C23.5494 13.278 23.7492 13.3758 23.8881 13.5289C24.027 13.6791 24.0964 13.8662 24.0964 14.0901C24.0964 14.263 24.0511 14.4232 23.9604 14.5706C23.8697 14.7151 23.7308 14.8313 23.5437 14.9192C23.3594 15.0071 23.1327 15.051 22.8634 15.051C22.6536 15.051 22.4467 15.0241 22.2426 14.9702C22.0414 14.9135 21.8699 14.8342 21.7281 14.7321L21.996 14.2049C22.1094 14.2899 22.2398 14.3566 22.3872 14.4047C22.5374 14.4501 22.6905 14.4728 22.8464 14.4728C23.0193 14.4728 23.1553 14.4402 23.2546 14.375C23.3538 14.3069 23.4034 14.212 23.4034 14.0901C23.4034 13.8463 23.2177 13.7244 22.8464 13.7244H22.5317V13.2695L23.144 12.5764H21.8769V12.0237H23.9604V12.4701L23.2886 13.2355Z" fill="white"/>
<defs>
<radialGradient id="paint0_radial_591_3142" cx="0" cy="0" r="1" gradientUnits="userSpaceOnUse" gradientTransform="translate(9.14369 5.18638) scale(24.0974 24.0945)">
<stop stop-color="#FE9A17"/>
<stop offset="0.23" stop-color="#FE9407"/>
<stop offset="1" stop-color="#BB6E00"/>
</radialGradient>
<radialGradient id="paint1_radial_591_3142" cx="0" cy="0" r="1" gradientUnits="userSpaceOnUse" gradientTransform="translate(13.4969 14.0028) scale(12.5752 12.4386)">
<stop stop-color="#FE9A17"/>
<stop offset="0.23" stop-color="#FE9407"/>
<stop offset="1" stop-color="#BB6E00"/>
</radialGradient>
<linearGradient id="paint2_linear_591_3142" x1="19.5187" y1="0.121413" x2="15.7651" y2="8.28608" gradientUnits="userSpaceOnUse">
<stop stop-color="white"/>
<stop offset="0.37" stop-color="white" stop-opacity="0.63"/>
<stop offset="1" stop-color="white" stop-opacity="0"/>
</linearGradient>
</defs>
</svg>
