<svg width="25" height="25" viewBox="0 0 25 25" fill="none" xmlns="http://www.w3.org/2000/svg">
<g id="VK">
<path id="&#226;&#134;&#179; Background" d="M0 12C0 6.34315 0 3.51472 1.75736 1.75736C3.51472 0 6.34315 0 12 0H13C18.6569 0 21.4853 0 23.2426 1.75736C25 3.51472 25 6.34315 25 12V13C25 18.6569 25 21.4853 23.2426 23.2426C21.4853 25 18.6569 25 13 25H12C6.34315 25 3.51472 25 1.75736 23.2426C0 21.4853 0 18.6569 0 13V12Z" fill="#0077FF"/>
<path id="&#226;&#134;&#179; Foreground" d="M13.3021 18.0078C7.60414 18.0078 4.35417 14.1016 4.21875 7.60156H7.07291C7.16666 12.3724 9.27078 14.3932 10.9374 14.8099V7.60156H13.625V11.7161C15.2709 11.539 16.9998 9.66406 17.5832 7.60156H20.2707C19.8228 10.1432 17.9478 12.0182 16.6145 12.789C17.9478 13.414 20.0833 15.0495 20.8958 18.0078H17.9374C17.302 16.0286 15.7188 14.4974 13.625 14.289V18.0078H13.3021Z" fill="white"/>
</g>
</svg>
