<svg width="178" height="34" viewBox="0 0 178 34" fill="none" xmlns="http://www.w3.org/2000/svg">
<g id="Yandex_Market_cropp_logo 1">
<path id="Vector" d="M82.9816 28.6844H86.4879L91.3754 10.5156V28.6844H95.3066V4.67188H89.8879L85.0004 22.3094L80.1129 4.67188H74.5879V28.6844H77.9879V10.5156L82.9816 28.6844ZM111.775 16.7844C111.775 12.5344 109.65 10.9406 105.294 10.9406C102.532 10.9406 100.407 11.7906 99.1316 12.5344V15.9344C100.194 15.0844 102.638 14.2344 104.763 14.2344C106.782 14.2344 107.632 14.9781 107.632 16.7844V17.7406H106.994C100.725 17.7406 97.8566 19.8656 97.8566 23.3719C97.8566 26.8781 99.9816 28.8969 103.169 28.8969C105.613 28.8969 106.675 28.1531 107.419 27.3031H107.632C107.632 27.7281 107.844 28.3656 107.95 28.6844H111.988C111.882 27.3031 111.775 25.8156 111.775 24.4344V16.7844ZM107.632 24.5406C107.1 25.2844 106.144 25.9219 104.657 25.9219C102.957 25.9219 102.107 24.8594 102.107 23.3719C102.107 21.3531 103.488 20.6094 107.1 20.6094H107.738V24.5406H107.632ZM118.894 11.2594H115.069V33.6781H119.213V26.6656C120.275 28.2594 121.763 29.0031 123.569 29.0031C127.607 29.0031 130.369 25.8156 130.369 19.9719C130.369 14.1281 127.713 10.9406 123.782 10.9406C121.869 10.9406 120.275 11.7906 119.107 13.4906L118.894 11.2594ZM122.4 25.8156C120.275 25.8156 119.107 24.0094 119.107 20.0781C119.107 16.0406 120.275 14.2344 122.613 14.2344C124.844 14.2344 126.013 16.0406 126.013 19.9719C126.013 24.0094 124.844 25.8156 122.4 25.8156ZM143.225 28.6844H147.9L141.313 19.3344L147.157 11.2594H143.013L137.169 19.3344V11.2594H133.025V28.6844H137.169V20.1844L143.225 28.6844ZM161.713 27.5156V24.1156C160.438 24.9656 158.313 25.7094 156.294 25.7094C153.319 25.7094 152.15 24.3281 151.938 21.3531H161.819V19.1219C161.819 13.0656 159.163 10.8344 155.019 10.8344C150.025 10.8344 147.582 14.6594 147.582 19.9719C147.582 26.0281 150.557 29.0031 155.763 29.0031C158.632 29.0031 160.544 28.3656 161.713 27.5156ZM155.019 14.2344C157.038 14.2344 157.675 15.9344 157.675 18.0594V18.3781H151.938C152.044 15.6156 153.107 14.2344 155.019 14.2344ZM176.588 14.5531V11.2594H162.775V14.5531H167.663V28.6844H171.807V14.5531H176.588Z" fill="black"/>
<path id="Vector_2" d="M50.0441 32.9375C58.8629 32.9375 65.9816 25.8188 65.9816 17C65.9816 8.18125 58.8629 1.0625 50.0441 1.0625C41.2254 1.0625 34.1066 8.18125 34.1066 17C34.0004 25.8188 41.2254 32.9375 50.0441 32.9375Z" fill="#FED42B"/>
<path id="Vector_3" d="M15.9375 32.9375C24.7395 32.9375 31.875 25.802 31.875 17C31.875 8.19796 24.7395 1.0625 15.9375 1.0625C7.13546 1.0625 0 8.19796 0 17C0 25.802 7.13546 32.9375 15.9375 32.9375Z" fill="#FC3F1D"/>
<path id="Vector_4" d="M18.2746 9.9875H16.6809C13.9184 9.9875 12.5371 11.3687 12.5371 13.4937C12.5371 15.8312 13.4934 17 15.5121 18.3812L17.1059 19.55L12.5371 26.6687H8.81836L13.1746 20.1875C10.6246 18.3812 9.24336 16.6812 9.24336 13.7062C9.24336 9.9875 11.7934 7.4375 16.6809 7.4375H21.5684V26.5625H18.3809V9.9875H18.2746Z" fill="white"/>
<g id="Clip path group">
<mask id="mask0_610_7841" style="mask-type:luminance" maskUnits="userSpaceOnUse" x="34" y="1" width="32" height="32">
<g id="a">
<path id="Vector_5" d="M50.0441 32.9375C58.8629 32.9375 65.9816 25.8188 65.9816 17C65.9816 8.18125 58.8629 1.0625 50.0441 1.0625C41.2254 1.0625 34.1066 8.18125 34.1066 17C34.0004 25.8188 41.2254 32.9375 50.0441 32.9375Z" fill="white"/>
</g>
</mask>
<g mask="url(#mask0_610_7841)">
<path id="Vector_6" d="M42.1813 9.77812L28.1562 28.1594L31.875 32.4094L42.2875 18.5969L41.225 26.1406L47.0687 28.1594L54.1875 16.7906C53.8687 18.9156 53.3375 23.8031 58.0125 25.2906C65.3438 27.5219 71.7188 14.3469 74.6938 7.65312L70.4438 5.42188C67.15 12.3281 62.05 19.9781 60.0312 19.4469C58.0125 18.9156 59.8188 12.4344 60.9875 8.29063V8.18437L54.5062 5.95312L46.75 18.5969L47.8125 11.6906L42.1813 9.77812Z" fill="black"/>
</g>
</g>
</g>
</svg>
